<svg width="106" height="106" viewBox="0 0 106 106" fill="none" xmlns="http://www.w3.org/2000/svg">
<mask id="mask0_702_1000" style="mask-type:alpha" maskUnits="userSpaceOnUse" x="0" y="0" width="106" height="53">
<rect width="106" height="53" fill="#D9D9D9"/>
</mask>
<g mask="url(#mask0_702_1000)">
<path fill-rule="evenodd" clip-rule="evenodd" d="M61.0683 0.694827C86.1252 4.62073 105.293 26.3027 105.293 52.4617L105.293 87.6684L149.792 87.6684L149.792 118.391L15.8523 118.391L0.491206 118.391L0.491206 103.03L0.491209 52.4617C0.49121 26.5666 19.2745 5.05858 43.9596 0.819029L43.9596 32.7029C36.4428 36.1065 31.2135 43.6734 31.2135 52.4617L31.2134 87.6684L74.5709 87.6684L74.5709 52.4617C74.5709 43.3815 68.9884 35.6052 61.0683 32.3777L61.0683 0.694827Z" fill="#F1F1F1"/>
<path fill-rule="evenodd" clip-rule="evenodd" d="M61.0683 0.694827C86.1252 4.62073 105.293 26.3027 105.293 52.4617L105.293 87.6684L149.792 87.6684L149.792 118.391L15.8523 118.391L0.491206 118.391L0.491206 103.03L0.491209 52.4617C0.49121 26.5666 19.2745 5.05858 43.9596 0.819029L43.9596 32.7029C36.4428 36.1065 31.2135 43.6734 31.2135 52.4617L31.2134 87.6684L74.5709 87.6684L74.5709 52.4617C74.5709 43.3815 68.9884 35.6052 61.0683 32.3777L61.0683 0.694827Z" fill="#F1F1F1"/>
</g>
<mask id="mask1_702_1000" style="mask-type:alpha" maskUnits="userSpaceOnUse" x="0" y="53" width="106" height="53">
<rect width="106" height="53" transform="matrix(1 0 0 -1 0 106)" fill="#D9D9D9"/>
</mask>
<g mask="url(#mask1_702_1000)">
<path fill-rule="evenodd" clip-rule="evenodd" d="M61.0683 105.305C86.1252 101.379 105.293 79.6973 105.293 53.5383L105.293 18.3316L149.792 18.3316L149.792 -12.3907L15.8523 -12.3907L0.491206 -12.3907L0.491206 2.97045L0.491209 53.5383C0.49121 79.4334 19.2745 100.941 43.9596 105.181L43.9596 73.2971C36.4428 69.8935 31.2135 62.3266 31.2135 53.5383L31.2134 18.3316L74.5709 18.3316L74.5709 53.5383C74.5709 62.6185 68.9884 70.3948 61.0683 73.6223L61.0683 105.305Z" fill="#F1F1F1"/>
<path fill-rule="evenodd" clip-rule="evenodd" d="M61.0683 105.305C86.1252 101.379 105.293 79.6973 105.293 53.5383L105.293 18.3316L149.792 18.3316L149.792 -12.3907L15.8523 -12.3907L0.491206 -12.3907L0.491206 2.97045L0.491209 53.5383C0.49121 79.4334 19.2745 100.941 43.9596 105.181L43.9596 73.2971C36.4428 69.8935 31.2135 62.3266 31.2135 53.5383L31.2134 18.3316L74.5709 18.3316L74.5709 53.5383C74.5709 62.6185 68.9884 70.3948 61.0683 73.6223L61.0683 105.305Z" fill="#F1F1F1"/>
</g>
</svg>
