<svg width="212" height="112" viewBox="0 0 212 112" fill="none" xmlns="http://www.w3.org/2000/svg">
<g clip-path="url(#clip0_414_3749)">
<path fill-rule="evenodd" clip-rule="evenodd" d="M167.979 58.6865C192.88 62.5759 211.933 84.119 211.933 110.112L211.933 145.668L255.867 145.668L255.867 176.39L123.191 176.39L107.83 176.39L107.83 161.029L107.83 110.112C107.83 84.3817 126.5 63.0118 151.031 58.8098L151.031 90.6998C143.669 94.0619 138.552 101.489 138.552 110.112L138.552 145.668L181.211 145.668L181.211 110.112C181.211 101.198 175.743 93.5618 167.979 90.3733L167.979 58.6865Z" fill="#F1F1F1"/>
<path fill-rule="evenodd" clip-rule="evenodd" d="M60.0637 58.7031C84.9654 54.8137 104.018 33.2707 104.018 7.27761L104.018 -28.2786L147.952 -28.2786L147.952 -59.0008L15.2762 -59.0008L-0.0849658 -59.0008L-0.0849652 -43.6397L-0.0849631 7.27761C-0.084962 33.008 18.5846 54.3778 43.1164 58.5798L43.1164 26.6898C35.7538 23.3277 30.6373 15.9002 30.6373 7.27761L30.6373 -28.2786L73.2959 -28.2786L73.2959 7.27761C73.2959 16.1913 67.8282 23.8278 60.0637 27.0163L60.0637 58.7031Z" fill="#F1F1F1"/>
</g>
<defs>
<clipPath id="clip0_414_3749">
<rect width="212" height="112" fill="white"/>
</clipPath>
</defs>
</svg>
