<svg width="10" height="6" viewBox="0 0 10 6" fill="none" xmlns="http://www.w3.org/2000/svg">
<path d="M9.16707 0.641619C9.01094 0.48641 8.79973 0.399292 8.57957 0.399292C8.35942 0.399292 8.14821 0.48641 7.99207 0.641619L5.0004 3.59162L2.0504 0.641619C1.89427 0.48641 1.68306 0.399292 1.4629 0.399292C1.24275 0.399292 1.03154 0.48641 0.875405 0.641619C0.797298 0.719088 0.735302 0.811256 0.692995 0.912805C0.650688 1.01435 0.628906 1.12328 0.628906 1.23329C0.628906 1.3433 0.650688 1.45222 0.692995 1.55377C0.735302 1.65532 0.797298 1.74748 0.875405 1.82495L4.40874 5.35829C4.48621 5.43639 4.57837 5.49839 4.67992 5.54069C4.78147 5.583 4.8904 5.60478 5.0004 5.60478C5.11041 5.60478 5.21934 5.583 5.32089 5.54069C5.42243 5.49839 5.5146 5.43639 5.59207 5.35829L9.16707 1.82495C9.24518 1.74748 9.30717 1.65532 9.34948 1.55377C9.39179 1.45222 9.41357 1.3433 9.41357 1.23329C9.41357 1.12328 9.39179 1.01435 9.34948 0.912805C9.30717 0.811256 9.24518 0.719088 9.16707 0.641619Z" fill="#878787"/>
</svg>
