<svg width="29" height="18" viewBox="0 0 29 18" fill="none" xmlns="http://www.w3.org/2000/svg">
<path d="M27.3338 1.45318C26.8342 0.956512 26.1583 0.677734 25.4538 0.677734C24.7494 0.677734 24.0735 0.956512 23.5738 1.45318L14.0005 10.8932L4.56051 1.45318C4.06088 0.956512 3.38501 0.677734 2.68051 0.677734C1.97602 0.677734 1.30015 0.956512 0.800514 1.45318C0.550572 1.70108 0.352186 1.99602 0.216803 2.32098C0.0814201 2.64593 0.0117188 2.99448 0.0117188 3.34651C0.0117188 3.69855 0.0814201 4.04709 0.216803 4.37205C0.352186 4.69701 0.550572 4.99195 0.800514 5.23985L12.1072 16.5465C12.3551 16.7965 12.65 16.9948 12.975 17.1302C13.2999 17.2656 13.6485 17.3353 14.0005 17.3353C14.3525 17.3353 14.7011 17.2656 15.0261 17.1302C15.351 16.9948 15.6459 16.7965 15.8938 16.5465L27.3338 5.23985C27.5838 4.99195 27.7822 4.69701 27.9176 4.37205C28.0529 4.04709 28.1226 3.69855 28.1226 3.34651C28.1226 2.99448 28.0529 2.64593 27.9176 2.32098C27.7822 1.99602 27.5838 1.70108 27.3338 1.45318Z" fill="#F1F1F1"/>
</svg>
