<svg width="15" height="15" viewBox="0 0 15 15" fill="none" xmlns="http://www.w3.org/2000/svg">
<path d="M9.2919 7.40022L14.4519 2.25222C14.6779 2.02626 14.8048 1.71978 14.8048 1.40022C14.8048 1.08066 14.6779 0.774187 14.4519 0.548223C14.2259 0.322258 13.9195 0.195312 13.5999 0.195312C13.2803 0.195312 12.9739 0.322258 12.7479 0.548223L7.5999 5.70822L2.4519 0.548223C2.22594 0.322258 1.91946 0.195312 1.5999 0.195312C1.28034 0.195313 0.973867 0.322258 0.747902 0.548223C0.521938 0.774187 0.394992 1.08066 0.394992 1.40022C0.394992 1.71978 0.521938 2.02626 0.747902 2.25222L5.9079 7.40022L0.747902 12.5482C0.635428 12.6598 0.546155 12.7925 0.485233 12.9387C0.424311 13.085 0.392944 13.2418 0.392944 13.4002C0.392944 13.5586 0.424311 13.7155 0.485233 13.8617C0.546155 14.0079 0.635428 14.1407 0.747902 14.2522C0.859458 14.3647 0.992179 14.454 1.13841 14.5149C1.28464 14.5758 1.44149 14.6072 1.5999 14.6072C1.75832 14.6072 1.91516 14.5758 2.06139 14.5149C2.20763 14.454 2.34035 14.3647 2.4519 14.2522L7.5999 9.09222L12.7479 14.2522C12.8595 14.3647 12.9922 14.454 13.1384 14.5149C13.2846 14.5758 13.4415 14.6072 13.5999 14.6072C13.7583 14.6072 13.9152 14.5758 14.0614 14.5149C14.2076 14.454 14.3403 14.3647 14.4519 14.2522C14.5644 14.1407 14.6537 14.0079 14.7146 13.8617C14.7755 13.7155 14.8069 13.5586 14.8069 13.4002C14.8069 13.2418 14.7755 13.085 14.7146 12.9387C14.6537 12.7925 14.5644 12.6598 14.4519 12.5482L9.2919 7.40022Z" fill="#2E2E2E"/>
</svg>
