<svg width="20" height="20" viewBox="0 0 20 20" fill="none" xmlns="http://www.w3.org/2000/svg">
<path d="M15.8327 3.3335H4.16602C3.50297 3.3335 2.86709 3.59689 2.39825 4.06573C1.92941 4.53457 1.66602 5.17045 1.66602 5.8335V14.1668C1.66602 14.8299 1.92941 15.4658 2.39825 15.9346C2.86709 16.4034 3.50297 16.6668 4.16602 16.6668H15.8327C16.4957 16.6668 17.1316 16.4034 17.6004 15.9346C18.0693 15.4658 18.3327 14.8299 18.3327 14.1668V5.8335C18.3327 5.17045 18.0693 4.53457 17.6004 4.06573C17.1316 3.59689 16.4957 3.3335 15.8327 3.3335ZM15.491 5.00016L10.591 9.90016C10.5135 9.97827 10.4214 10.0403 10.3198 10.0826C10.2183 10.1249 10.1094 10.1467 9.99935 10.1467C9.88934 10.1467 9.78042 10.1249 9.67887 10.0826C9.57732 10.0403 9.48515 9.97827 9.40768 9.90016L4.50768 5.00016H15.491ZM16.666 14.1668C16.666 14.3878 16.5782 14.5998 16.4219 14.7561C16.2657 14.9124 16.0537 15.0002 15.8327 15.0002H4.16602C3.945 15.0002 3.73304 14.9124 3.57676 14.7561C3.42048 14.5998 3.33268 14.3878 3.33268 14.1668V6.17516L8.23268 11.0752C8.70143 11.5433 9.33685 11.8063 9.99935 11.8063C10.6619 11.8063 11.2973 11.5433 11.766 11.0752L16.666 6.17516V14.1668Z" fill="black"/>
</svg>
