<svg width="20" height="20" viewBox="0 0 20 20" fill="none" xmlns="http://www.w3.org/2000/svg">
<path d="M17.841 7.19994V7.15828C17.2538 5.55513 16.1884 4.17101 14.7889 3.19316C13.3894 2.21531 11.7233 1.69092 10.016 1.69092C8.30872 1.69092 6.64263 2.21531 5.24311 3.19316C3.84359 4.17101 2.77818 5.55513 2.19102 7.15828C2.19102 7.15828 2.19102 7.15828 2.19102 7.19994C1.53529 9.00902 1.53529 10.9909 2.19102 12.7999V12.8416C2.77818 14.4448 3.84359 15.8289 5.24311 16.8067C6.64263 17.7846 8.30872 18.309 10.016 18.309C11.7233 18.309 13.3894 17.7846 14.7889 16.8067C16.1884 15.8289 17.2538 14.4448 17.841 12.8416C17.841 12.8416 17.841 12.8416 17.841 12.7999C18.4967 10.9909 18.4967 9.00902 17.841 7.19994ZM3.54935 11.6666C3.26037 10.5743 3.26037 9.4256 3.54935 8.33327H5.09935C4.96604 9.44039 4.96604 10.5595 5.09935 11.6666H3.54935ZM4.23268 13.3333H5.39935C5.59495 14.0765 5.87453 14.795 6.23268 15.4749C5.41543 14.9182 4.73226 14.1867 4.23268 13.3333ZM5.39935 6.66661H4.23268C4.72507 5.81585 5.39951 5.0845 6.20768 4.52494C5.85814 5.20598 5.58697 5.92446 5.39935 6.66661ZM9.16602 16.4166C8.14249 15.6655 7.42364 14.571 7.14102 13.3333H9.16602V16.4166ZM9.16602 11.6666H6.78268C6.62717 10.5609 6.62717 9.43894 6.78268 8.33327H9.16602V11.6666ZM9.16602 6.66661H7.14102C7.42364 5.42891 8.14249 4.33437 9.16602 3.58328V6.66661ZM15.766 6.66661H14.5993C14.4038 5.92341 14.1242 5.20489 13.766 4.52494C14.5833 5.08167 15.2664 5.81323 15.766 6.66661ZM10.8327 3.58328C11.8562 4.33437 12.5751 5.42891 12.8577 6.66661H10.8327V3.58328ZM10.8327 16.4166V13.3333H12.8577C12.5751 14.571 11.8562 15.6655 10.8327 16.4166ZM13.216 11.6666H10.8327V8.33327H13.216C13.3715 9.43894 13.3715 10.5609 13.216 11.6666ZM13.791 15.4749C14.1492 14.795 14.4287 14.0765 14.6243 13.3333H15.791C15.2914 14.1867 14.6083 14.9182 13.791 15.4749ZM16.4493 11.6666H14.8993C14.9671 11.1137 15.0005 10.557 14.9993 9.99994C15.0003 9.44286 14.9669 8.88625 14.8993 8.33327H16.4493C16.7383 9.4256 16.7383 10.5743 16.4493 11.6666Z" fill="black"/>
</svg>
