<svg width="130" height="41" viewBox="0 0 130 41" fill="none" xmlns="http://www.w3.org/2000/svg">
<path d="M48.9273 16.7324C48.9273 17.8276 48.7197 18.7593 48.3045 19.5276C47.8925 20.2959 47.3302 20.8828 46.6175 21.2881C45.9081 21.6903 45.1104 21.8913 44.2244 21.8913C43.3319 21.8913 42.5309 21.6886 41.8214 21.2832C41.112 20.8778 40.5513 20.291 40.1394 19.5227C39.7275 18.7544 39.5215 17.8243 39.5215 16.7324C39.5215 15.6372 39.7275 14.7054 40.1394 13.9371C40.5513 13.1688 41.112 12.5836 41.8214 12.1815C42.5309 11.7761 43.3319 11.5734 44.2244 11.5734C45.1104 11.5734 45.9081 11.7761 46.6175 12.1815C47.3302 12.5836 47.8925 13.1688 48.3045 13.9371C48.7197 14.7054 48.9273 15.6372 48.9273 16.7324ZM46.7744 16.7324C46.7744 16.0229 46.6682 15.4247 46.4557 14.9375C46.2464 14.4504 45.9506 14.081 45.5681 13.8292C45.1855 13.5775 44.7377 13.4516 44.2244 13.4516C43.7111 13.4516 43.2632 13.5775 42.8807 13.8292C42.4982 14.081 42.2007 14.4504 41.9882 14.9375C41.7789 15.4247 41.6743 16.0229 41.6743 16.7324C41.6743 17.4418 41.7789 18.0401 41.9882 18.5272C42.2007 19.0143 42.4982 19.3838 42.8807 19.6355C43.2632 19.8872 43.7111 20.0131 44.2244 20.0131C44.7377 20.0131 45.1855 19.8872 45.5681 19.6355C45.9506 19.3838 46.2464 19.0143 46.4557 18.5272C46.6682 18.0401 46.7744 17.4418 46.7744 16.7324Z" fill="#F1F1F1"/>
<path d="M50.461 24.5787V14.2215H52.5206V15.4868H52.6138C52.7054 15.2841 52.8378 15.0781 53.011 14.8689C53.1876 14.6564 53.4164 14.4798 53.6976 14.3392C53.982 14.1954 54.3351 14.1235 54.7568 14.1235C55.3061 14.1235 55.8128 14.2673 56.2771 14.555C56.7413 14.8394 57.1124 15.2694 57.3903 15.8448C57.6682 16.4169 57.8071 17.1345 57.8071 17.9976C57.8071 18.8378 57.6714 19.5472 57.4001 20.1259C57.132 20.7013 56.7658 21.1378 56.3016 21.4353C55.8406 21.7295 55.3241 21.8766 54.7519 21.8766C54.3465 21.8766 54.0016 21.8096 53.7172 21.6756C53.436 21.5415 53.2056 21.3731 53.0257 21.1705C52.8459 20.9645 52.7086 20.7569 52.6138 20.5476H52.5501V24.5787H50.461ZM52.5059 17.9878C52.5059 18.4357 52.568 18.8264 52.6923 19.1598C52.8165 19.4933 52.9963 19.7532 53.2317 19.9396C53.4671 20.1226 53.7532 20.2142 54.0899 20.2142C54.4299 20.2142 54.7176 20.121 54.953 19.9347C55.1884 19.745 55.3666 19.4835 55.4875 19.15C55.6118 18.8133 55.6739 18.4259 55.6739 17.9878C55.6739 17.553 55.6134 17.1705 55.4924 16.8403C55.3715 16.5101 55.1933 16.2518 54.9579 16.0654C54.7225 15.8791 54.4332 15.7859 54.0899 15.7859C53.7499 15.7859 53.4622 15.8758 53.2268 16.0556C52.9947 16.2354 52.8165 16.4904 52.6923 16.8206C52.568 17.1508 52.5059 17.5399 52.5059 17.9878Z" fill="#F1F1F1"/>
<path d="M63.2064 14.2215V15.7908H58.6702V14.2215H63.2064ZM59.7 12.4169H61.7891V19.4394C61.7891 19.6322 61.8185 19.7826 61.8774 19.8905C61.9362 19.9951 62.018 20.0687 62.1226 20.1112C62.2305 20.1537 62.3547 20.1749 62.4953 20.1749C62.5934 20.1749 62.6914 20.1668 62.7895 20.1504C62.8876 20.1308 62.9628 20.1161 63.0151 20.1063L63.3437 21.6608C63.239 21.6935 63.0919 21.7311 62.9023 21.7736C62.7127 21.8194 62.4822 21.8472 62.2108 21.857C61.7074 21.8766 61.266 21.8096 60.8868 21.6559C60.5108 21.5023 60.2182 21.2636 60.009 20.94C59.7997 20.6163 59.6968 20.2076 59.7 19.714V12.4169Z" fill="#F1F1F1"/>
<path d="M64.5672 21.754V14.2215H66.6563V21.754H64.5672ZM65.6166 13.2506C65.3061 13.2506 65.0396 13.1476 64.8173 12.9416C64.5983 12.7324 64.4887 12.4823 64.4887 12.1913C64.4887 11.9036 64.5983 11.6568 64.8173 11.4508C65.0396 11.2416 65.3061 11.137 65.6166 11.137C65.9272 11.137 66.192 11.2416 66.4111 11.4508C66.6334 11.6568 66.7446 11.9036 66.7446 12.1913C66.7446 12.4823 66.6334 12.7324 66.4111 12.9416C66.192 13.1476 65.9272 13.2506 65.6166 13.2506Z" fill="#F1F1F1"/>
<path d="M68.3298 21.754V14.2215H70.3208V15.5505H70.409C70.566 15.1092 70.8275 14.761 71.1937 14.506C71.5598 14.251 71.9979 14.1235 72.5079 14.1235C73.0245 14.1235 73.4642 14.2526 73.8271 14.5109C74.19 14.7659 74.4319 15.1124 74.5529 15.5505H74.6313C74.785 15.119 75.0629 14.7741 75.465 14.5158C75.8704 14.2542 76.3494 14.1235 76.9019 14.1235C77.6048 14.1235 78.1753 14.3474 78.6133 14.7953C79.0547 15.2399 79.2754 15.8709 79.2754 16.6882V21.754H77.1912V17.1002C77.1912 16.6817 77.08 16.3678 76.8577 16.1586C76.6354 15.9494 76.3575 15.8448 76.0241 15.8448C75.6448 15.8448 75.3489 15.9657 75.1364 16.2077C74.9239 16.4463 74.8177 16.7618 74.8177 17.1541V21.754H72.7924V17.056C72.7924 16.6866 72.6861 16.3924 72.4736 16.1733C72.2644 15.9543 71.9881 15.8448 71.6448 15.8448C71.4127 15.8448 71.2035 15.9036 71.0171 16.0213C70.834 16.1357 70.6886 16.2976 70.5807 16.5068C70.4728 16.7128 70.4188 16.9547 70.4188 17.2326V21.754H68.3298Z" fill="#F1F1F1"/>
<path d="M83.0735 21.8962C82.5929 21.8962 82.1646 21.8129 81.7887 21.6461C81.4127 21.4761 81.1152 21.226 80.8961 20.8958C80.6804 20.5624 80.5725 20.1472 80.5725 19.6502C80.5725 19.2318 80.6493 18.8803 80.803 18.5959C80.9566 18.3114 81.1659 18.0826 81.4307 17.9093C81.6955 17.736 81.9963 17.6053 82.333 17.517C82.673 17.4287 83.0294 17.3666 83.4021 17.3307C83.8401 17.2849 84.1932 17.2424 84.4613 17.2032C84.7294 17.1607 84.9239 17.0985 85.0449 17.0168C85.1658 16.9351 85.2263 16.8141 85.2263 16.6539V16.6245C85.2263 16.3139 85.1282 16.0736 84.9321 15.9036C84.7392 15.7336 84.4646 15.6486 84.1082 15.6486C83.7323 15.6486 83.4331 15.732 83.2108 15.8987C82.9885 16.0622 82.8414 16.2681 82.7694 16.5166L80.8373 16.3597C80.9354 15.902 81.1283 15.5064 81.416 15.1729C81.7037 14.8362 82.0747 14.5779 82.5291 14.3981C82.9869 14.215 83.5165 14.1235 84.118 14.1235C84.5365 14.1235 84.937 14.1725 85.3195 14.2706C85.7053 14.3687 86.0469 14.5207 86.3444 14.7267C86.6452 14.9326 86.8822 15.1974 87.0555 15.5211C87.2288 15.8415 87.3154 16.2256 87.3154 16.6735V21.754H85.3342V20.7095H85.2754C85.1544 20.9449 84.9926 21.1525 84.7899 21.3323C84.5872 21.5088 84.3436 21.6478 84.0592 21.7491C83.7748 21.8472 83.4462 21.8962 83.0735 21.8962ZM83.6718 20.4545C83.9791 20.4545 84.2504 20.394 84.4858 20.273C84.7212 20.1488 84.9059 19.9821 85.04 19.7728C85.174 19.5636 85.241 19.3266 85.241 19.0618V18.2624C85.1756 18.3049 85.0857 18.3441 84.9713 18.3801C84.8602 18.4128 84.7343 18.4439 84.5937 18.4733C84.4531 18.4994 84.3126 18.524 84.172 18.5468C84.0314 18.5665 83.9039 18.5844 83.7895 18.6008C83.5443 18.6367 83.3301 18.694 83.147 18.7724C82.964 18.8509 82.8218 18.9571 82.7204 19.0912C82.6191 19.2219 82.5684 19.3854 82.5684 19.5816C82.5684 19.866 82.6714 20.0834 82.8773 20.2338C83.0866 20.3809 83.3514 20.4545 83.6718 20.4545Z" fill="#F1F1F1"/>
<path d="M91.0252 11.7107V21.754H88.9362V11.7107H91.0252Z" fill="#F1F1F1"/>
<path d="M39.698 38.0037V27.9604H41.8214V36.253H46.1271V38.0037H39.698Z" fill="#F1F1F1"/>
<path d="M50.8974 38.1508C50.1357 38.1508 49.4769 37.989 48.9211 37.6653C48.3686 37.3384 47.942 36.8839 47.6412 36.302C47.3404 35.7168 47.19 35.0384 47.19 34.2669C47.19 33.4888 47.3404 32.8088 47.6412 32.2268C47.942 31.6416 48.3686 31.1872 48.9211 30.8635C49.4769 30.5366 50.1357 30.3731 50.8974 30.3731C51.6592 30.3731 52.3163 30.5366 52.8688 30.8635C53.4246 31.1872 53.8529 31.6416 54.1537 32.2268C54.4544 32.8088 54.6048 33.4888 54.6048 34.2669C54.6048 35.0384 54.4544 35.7168 54.1537 36.302C53.8529 36.8839 53.4246 37.3384 52.8688 37.6653C52.3163 37.989 51.6592 38.1508 50.8974 38.1508ZM50.9072 36.5325C51.2538 36.5325 51.5431 36.4344 51.7752 36.2383C52.0074 36.0388 52.1823 35.7675 52.3 35.4242C52.4209 35.0809 52.4814 34.6902 52.4814 34.2522C52.4814 33.8141 52.4209 33.4234 52.3 33.0801C52.1823 32.7368 52.0074 32.4655 51.7752 32.2661C51.5431 32.0666 51.2538 31.9669 50.9072 31.9669C50.5574 31.9669 50.2632 32.0666 50.0245 32.2661C49.7891 32.4655 49.611 32.7368 49.49 33.0801C49.3723 33.4234 49.3135 33.8141 49.3135 34.2522C49.3135 34.6902 49.3723 35.0809 49.49 35.4242C49.611 35.7675 49.7891 36.0388 50.0245 36.2383C50.2632 36.4344 50.5574 36.5325 50.9072 36.5325Z" fill="#F1F1F1"/>
<path d="M59.3567 40.9853C58.68 40.9853 58.0997 40.8921 57.6158 40.7058C57.1353 40.5227 56.7528 40.2726 56.4683 39.9555C56.1839 39.6383 55.9992 39.282 55.9142 38.8864L57.8463 38.6265C57.9052 38.7769 57.9984 38.9175 58.1259 39.0482C58.2534 39.179 58.4217 39.2836 58.631 39.3621C58.8435 39.4438 59.1017 39.4847 59.4058 39.4847C59.8602 39.4847 60.2346 39.3735 60.5288 39.1512C60.8263 38.9322 60.9751 38.5644 60.9751 38.0478V36.6698H60.8868C60.7952 36.879 60.6579 37.0768 60.4748 37.2632C60.2918 37.4495 60.0564 37.6016 59.7687 37.7193C59.481 37.8369 59.1377 37.8958 58.7389 37.8958C58.1733 37.8958 57.6583 37.765 57.1941 37.5035C56.7331 37.2387 56.3653 36.8349 56.0907 36.2922C55.8194 35.7462 55.6837 35.0564 55.6837 34.2227C55.6837 33.3694 55.8226 32.6567 56.1005 32.0846C56.3784 31.5125 56.7478 31.0842 57.2088 30.7998C57.6731 30.5153 58.1814 30.3731 58.7339 30.3731C59.1557 30.3731 59.5088 30.4451 59.7932 30.5889C60.0776 30.7295 60.3065 30.906 60.4798 31.1185C60.6563 31.3278 60.792 31.5337 60.8868 31.7364H60.9652V30.4712H63.0396V38.0772C63.0396 38.718 62.8827 39.2542 62.5688 39.6857C62.255 40.1173 61.8202 40.4409 61.2644 40.6567C60.7119 40.8758 60.076 40.9853 59.3567 40.9853ZM59.4009 36.3265C59.7376 36.3265 60.0221 36.2432 60.2542 36.0764C60.4896 35.9064 60.6694 35.6645 60.7936 35.3506C60.9211 35.0335 60.9849 34.6543 60.9849 34.2129C60.9849 33.7716 60.9227 33.3891 60.7985 33.0654C60.6743 32.7385 60.4945 32.4851 60.2591 32.3053C60.0237 32.1255 59.7376 32.0356 59.4009 32.0356C59.0576 32.0356 58.7683 32.1287 58.5329 32.3151C58.2975 32.4982 58.1193 32.7532 57.9984 33.0801C57.8774 33.407 57.8169 33.7846 57.8169 34.2129C57.8169 34.6477 57.8774 35.0237 57.9984 35.3408C58.1226 35.6547 58.3008 35.8983 58.5329 36.0715C58.7683 36.2415 59.0576 36.3265 59.4009 36.3265Z" fill="#F1F1F1"/>
<path d="M64.7021 38.0037V30.4712H66.7911V38.0037H64.7021ZM65.7515 29.5002C65.4409 29.5002 65.1745 29.3972 64.9522 29.1913C64.7331 28.982 64.6236 28.7319 64.6236 28.441C64.6236 28.1533 64.7331 27.9064 64.9522 27.7005C65.1745 27.4912 65.4409 27.3866 65.7515 27.3866C66.0621 27.3866 66.3269 27.4912 66.5459 27.7005C66.7683 27.9064 66.8794 28.1533 66.8794 28.441C66.8794 28.7319 66.7683 28.982 66.5459 29.1913C66.3269 29.3972 66.0621 29.5002 65.7515 29.5002Z" fill="#F1F1F1"/>
<path d="M74.7319 32.6191L72.8193 32.7368C72.7866 32.5734 72.7163 32.4263 72.6085 32.2955C72.5006 32.1614 72.3584 32.0552 72.1818 31.9767C72.0085 31.895 71.8009 31.8541 71.559 31.8541C71.2353 31.8541 70.9624 31.9228 70.74 32.0601C70.5177 32.1941 70.4066 32.3739 70.4066 32.5995C70.4066 32.7793 70.4785 32.9314 70.6224 33.0556C70.7662 33.1798 71.013 33.2795 71.3629 33.3547L72.7261 33.6294C73.4585 33.7797 74.0044 34.0217 74.3641 34.3551C74.7237 34.6886 74.9035 35.1267 74.9035 35.6694C74.9035 36.1631 74.758 36.5962 74.4671 36.9689C74.1794 37.3417 73.7838 37.6326 73.2803 37.8419C72.7801 38.0478 72.2031 38.1508 71.5492 38.1508C70.5521 38.1508 69.7576 37.9432 69.1659 37.528C68.5774 37.1095 68.2325 36.5407 68.1311 35.8214L70.1859 35.7135C70.248 36.0176 70.3984 36.2497 70.6371 36.4099C70.8757 36.5668 71.1814 36.6453 71.5541 36.6453C71.9203 36.6453 72.2145 36.575 72.4368 36.4344C72.6624 36.2906 72.7768 36.1059 72.7801 35.8803C72.7768 35.6907 72.6967 35.5354 72.5398 35.4144C72.3829 35.2902 72.1409 35.1954 71.814 35.13L70.5096 34.8701C69.774 34.7229 69.2264 34.4679 68.8667 34.105C68.5104 33.7421 68.3322 33.2795 68.3322 32.7172C68.3322 32.2334 68.463 31.8165 68.7245 31.4667C68.9893 31.1169 69.3604 30.8472 69.8377 30.6576C70.3183 30.4679 70.8806 30.3731 71.5247 30.3731C72.476 30.3731 73.2247 30.5742 73.7707 30.9763C74.3199 31.3784 74.6403 31.926 74.7319 32.6191Z" fill="#F1F1F1"/>
<path d="M80.2255 30.4712V32.0405H75.6894V30.4712H80.2255ZM76.7192 28.6666H78.8083V35.689C78.8083 35.8819 78.8377 36.0323 78.8965 36.1402C78.9554 36.2448 79.0371 36.3184 79.1417 36.3609C79.2496 36.4034 79.3739 36.4246 79.5144 36.4246C79.6125 36.4246 79.7106 36.4164 79.8087 36.4001C79.9068 36.3805 79.982 36.3658 80.0343 36.356L80.3628 37.9105C80.2582 37.9432 80.1111 37.9808 79.9215 38.0233C79.7319 38.0691 79.5014 38.0969 79.23 38.1067C78.7265 38.1263 78.2852 38.0593 77.9059 37.9056C77.53 37.7519 77.2374 37.5133 77.0281 37.1896C76.8189 36.866 76.7159 36.4573 76.7192 35.9636V28.6666Z" fill="#F1F1F1"/>
<path d="M81.5864 38.0037V30.4712H83.6754V38.0037H81.5864ZM82.6358 29.5002C82.3252 29.5002 82.0588 29.3972 81.8365 29.1913C81.6174 28.982 81.5079 28.7319 81.5079 28.441C81.5079 28.1533 81.6174 27.9064 81.8365 27.7005C82.0588 27.4912 82.3252 27.3866 82.6358 27.3866C82.9464 27.3866 83.2112 27.4912 83.4303 27.7005C83.6526 27.9064 83.7637 28.1533 83.7637 28.441C83.7637 28.7319 83.6526 28.982 83.4303 29.1913C83.2112 29.3972 82.9464 29.5002 82.6358 29.5002Z" fill="#F1F1F1"/>
<path d="M88.7523 38.1508C87.9807 38.1508 87.317 37.9873 86.7613 37.6604C86.2087 37.3302 85.7837 36.8725 85.4862 36.2873C85.192 35.7021 85.0449 35.0286 85.0449 34.2669C85.0449 33.4953 85.1936 32.8186 85.4911 32.2366C85.7919 31.6514 86.2186 31.1954 86.7711 30.8684C87.3236 30.5382 87.9807 30.3731 88.7425 30.3731C89.3996 30.3731 89.975 30.4925 90.4687 30.7311C90.9623 30.9698 91.353 31.3049 91.6407 31.7364C91.9284 32.168 92.087 32.6747 92.1164 33.2567H90.145C90.0894 32.8807 89.9423 32.5783 89.7036 32.3494C89.4682 32.1173 89.1593 32.0012 88.7768 32.0012C88.4531 32.0012 88.1703 32.0895 87.9284 32.2661C87.6897 32.4393 87.5034 32.6927 87.3694 33.0262C87.2353 33.3596 87.1683 33.7634 87.1683 34.2374C87.1683 34.718 87.2337 35.1267 87.3644 35.4634C87.4985 35.8002 87.6865 36.0568 87.9284 36.2334C88.1703 36.4099 88.4531 36.4982 88.7768 36.4982C89.0154 36.4982 89.2296 36.4491 89.4192 36.351C89.6121 36.253 89.7707 36.1108 89.8949 35.9244C90.0224 35.7348 90.1058 35.5076 90.145 35.2428H92.1164C92.0837 35.8182 91.9268 36.3249 91.6456 36.763C91.3677 37.1978 90.9836 37.5378 90.4932 37.783C90.0028 38.0282 89.4225 38.1508 88.7523 38.1508Z" fill="#F1F1F1"/>
<path d="M96.6893 38.0037V27.9604H100.652C101.413 27.9604 102.062 28.1059 102.599 28.3968C103.135 28.6845 103.543 29.085 103.825 29.5983C104.109 30.1083 104.251 30.6968 104.251 31.3637C104.251 32.0307 104.107 32.6191 103.82 33.1292C103.532 33.6392 103.115 34.0364 102.569 34.3208C102.026 34.6052 101.369 34.7475 100.598 34.7475H98.0722V33.0458H100.254C100.663 33.0458 101 32.9755 101.265 32.8349C101.533 32.6911 101.732 32.4933 101.863 32.2415C101.997 31.9865 102.064 31.6939 102.064 31.3637C102.064 31.0303 101.997 30.7393 101.863 30.4908C101.732 30.2391 101.533 30.0446 101.265 29.9073C100.997 29.7667 100.657 29.6964 100.245 29.6964H98.8127V38.0037H96.6893Z" fill="#F1F1F1"/>
<path d="M105.591 38.0037V30.4712H107.617V31.7855H107.695C107.832 31.318 108.063 30.9649 108.386 30.7262C108.71 30.4843 109.083 30.3633 109.505 30.3633C109.609 30.3633 109.722 30.3699 109.843 30.3829C109.964 30.396 110.07 30.414 110.162 30.4369V32.2906C110.064 32.2612 109.928 32.235 109.755 32.2121C109.581 32.1892 109.423 32.1778 109.279 32.1778C108.972 32.1778 108.697 32.2448 108.455 32.3788C108.216 32.5096 108.027 32.6927 107.886 32.9281C107.749 33.1635 107.68 33.4348 107.68 33.7421V38.0037H105.591Z" fill="#F1F1F1"/>
<path d="M111.242 38.0037V30.4712H113.331V38.0037H111.242ZM112.291 29.5002C111.981 29.5002 111.714 29.3972 111.492 29.1913C111.273 28.982 111.163 28.7319 111.163 28.441C111.163 28.1533 111.273 27.9064 111.492 27.7005C111.714 27.4912 111.981 27.3866 112.291 27.3866C112.602 27.3866 112.867 27.4912 113.086 27.7005C113.308 27.9064 113.419 28.1533 113.419 28.441C113.419 28.7319 113.308 28.982 113.086 29.1913C112.867 29.3972 112.602 29.5002 112.291 29.5002Z" fill="#F1F1F1"/>
<path d="M118.408 38.1508C117.636 38.1508 116.972 37.9873 116.417 37.6604C115.864 37.3302 115.439 36.8725 115.142 36.2873C114.847 35.7021 114.7 35.0286 114.7 34.2669C114.7 33.4953 114.849 32.8186 115.147 32.2366C115.447 31.6514 115.874 31.1954 116.426 30.8684C116.979 30.5382 117.636 30.3731 118.398 30.3731C119.055 30.3731 119.63 30.4925 120.124 30.7311C120.618 30.9698 121.008 31.3049 121.296 31.7364C121.584 32.168 121.742 32.6747 121.772 33.2567H119.8C119.745 32.8807 119.598 32.5783 119.359 32.3494C119.124 32.1173 118.815 32.0012 118.432 32.0012C118.109 32.0012 117.826 32.0895 117.584 32.2661C117.345 32.4393 117.159 32.6927 117.025 33.0262C116.891 33.3596 116.824 33.7634 116.824 34.2374C116.824 34.718 116.889 35.1267 117.02 35.4634C117.154 35.8002 117.342 36.0568 117.584 36.2334C117.826 36.4099 118.109 36.4982 118.432 36.4982C118.671 36.4982 118.885 36.4491 119.075 36.351C119.268 36.253 119.426 36.1108 119.55 35.9244C119.678 35.7348 119.761 35.5076 119.8 35.2428H121.772C121.739 35.8182 121.582 36.3249 121.301 36.763C121.023 37.1978 120.639 37.5378 120.149 37.783C119.658 38.0282 119.078 38.1508 118.408 38.1508Z" fill="#F1F1F1"/>
<path d="M126.542 38.1508C125.767 38.1508 125.1 37.9939 124.541 37.68C123.986 37.3629 123.557 36.915 123.256 36.3363C122.956 35.7544 122.805 35.0662 122.805 34.2718C122.805 33.4969 122.956 32.8169 123.256 32.2317C123.557 31.6465 123.981 31.1905 124.527 30.8635C125.076 30.5366 125.72 30.3731 126.459 30.3731C126.956 30.3731 127.418 30.4532 127.847 30.6134C128.278 30.7704 128.654 31.0074 128.974 31.3245C129.298 31.6416 129.55 32.0405 129.73 32.5211C129.91 32.9984 129.999 33.5574 129.999 34.1982V34.772H123.639V33.4773H128.033C128.033 33.1766 127.968 32.9101 127.837 32.678C127.706 32.4459 127.525 32.2644 127.292 32.1336C127.064 31.9996 126.797 31.9326 126.493 31.9326C126.176 31.9326 125.895 32.0061 125.65 32.1533C125.408 32.2971 125.218 32.4916 125.081 32.7368C124.943 32.9788 124.873 33.2485 124.87 33.546V34.7769C124.87 35.1496 124.939 35.4716 125.076 35.743C125.216 36.0143 125.414 36.2235 125.669 36.3707C125.924 36.5178 126.227 36.5913 126.576 36.5913C126.809 36.5913 127.021 36.5587 127.214 36.4933C127.407 36.4279 127.572 36.3298 127.709 36.199C127.847 36.0683 127.951 35.9081 128.023 35.7184L129.955 35.8459C129.857 36.3102 129.656 36.7156 129.352 37.0621C129.051 37.4054 128.662 37.6735 128.185 37.8664C127.711 38.056 127.163 38.1508 126.542 38.1508Z" fill="#F1F1F1"/>
<path fill-rule="evenodd" clip-rule="evenodd" d="M19.8452 39.7929H-0.00018692L-0.00018692 13.0145L5.54016 13.0145L5.54016 34.2525H19.8452L19.8452 39.7929Z" fill="#F1F1F1"/>
<circle cx="7.48981" cy="5.48981" r="5.48981" fill="#F1F1F1"/>
<path fill-rule="evenodd" clip-rule="evenodd" d="M7.78076 23.9435C8.4823 28.4341 12.3672 31.8698 17.0546 31.8698H23.4667V39.7927H29.0071V15.8664V13.0962L26.2369 13.0962L17.0546 13.0962C12.4144 13.0962 8.56054 16.4632 7.8029 20.8873H13.5537C14.16 19.5594 15.4995 18.6365 17.0546 18.6365H23.4667V26.3295H17.0546C15.4473 26.3295 14.0702 25.3436 13.4951 23.9435H7.78076Z" fill="#F1F1F1"/>
</svg>
