<svg width="81" height="26" viewBox="0 0 81 26" fill="none" xmlns="http://www.w3.org/2000/svg">
<path d="M30.5492 11.0697C30.5492 11.7439 30.4214 12.3175 30.1658 12.7905C29.9122 13.2635 29.566 13.6248 29.1273 13.8743C28.6905 14.1219 28.1994 14.2457 27.654 14.2457C27.1045 14.2457 26.6114 14.1209 26.1747 13.8713C25.738 13.6217 25.3928 13.2605 25.1392 12.7875C24.8856 12.3145 24.7588 11.7419 24.7588 11.0697C24.7588 10.3954 24.8856 9.82182 25.1392 9.34885C25.3928 8.87587 25.738 8.5156 26.1747 8.26805C26.6114 8.01848 27.1045 7.89369 27.654 7.89369C28.1994 7.89369 28.6905 8.01848 29.1273 8.26805C29.566 8.5156 29.9122 8.87587 30.1658 9.34885C30.4214 9.82182 30.5492 10.3954 30.5492 11.0697ZM29.2239 11.0697C29.2239 10.6329 29.1585 10.2646 29.0276 9.96472C28.8988 9.66484 28.7167 9.4374 28.4812 9.28243C28.2457 9.12745 27.97 9.04997 27.654 9.04997C27.338 9.04997 27.0623 9.12745 26.8268 9.28243C26.5913 9.4374 26.4082 9.66484 26.2773 9.96472C26.1485 10.2646 26.0841 10.6329 26.0841 11.0697C26.0841 11.5064 26.1485 11.8747 26.2773 12.1746C26.4082 12.4745 26.5913 12.7019 26.8268 12.8569C27.0623 13.0119 27.338 13.0894 27.654 13.0894C27.97 13.0894 28.2457 13.0119 28.4812 12.8569C28.7167 12.7019 28.8988 12.4745 29.0276 12.1746C29.1585 11.8747 29.2239 11.5064 29.2239 11.0697Z" fill="white"/>
<path d="M31.4934 15.9001V9.52395H32.7614V10.3028H32.8188C32.8751 10.1781 32.9566 10.0513 33.0633 9.92246C33.172 9.79163 33.3129 9.68295 33.486 9.59641C33.6611 9.50785 33.8784 9.46357 34.1381 9.46357C34.4762 9.46357 34.7881 9.55213 35.0739 9.72924C35.3597 9.90434 35.5882 10.169 35.7593 10.5232C35.9303 10.8755 36.0159 11.3172 36.0159 11.8486C36.0159 12.3658 35.9323 12.8026 35.7653 13.1588C35.6003 13.513 35.3748 13.7817 35.089 13.9649C34.8053 14.146 34.4873 14.2366 34.135 14.2366C33.8855 14.2366 33.6731 14.1953 33.498 14.1128C33.3249 14.0303 33.183 13.9267 33.0724 13.8019C32.9617 13.6751 32.8771 13.5473 32.8188 13.4185H32.7795V15.9001H31.4934ZM32.7523 11.8425C32.7523 12.1183 32.7906 12.3588 32.8671 12.5641C32.9435 12.7694 33.0542 12.9294 33.1991 13.0441C33.3441 13.1568 33.5202 13.2132 33.7275 13.2132C33.9368 13.2132 34.1139 13.1558 34.2588 13.0411C34.4037 12.9243 34.5134 12.7633 34.5879 12.558C34.6644 12.3507 34.7026 12.1122 34.7026 11.8425C34.7026 11.5749 34.6654 11.3394 34.5909 11.1361C34.5164 10.9328 34.4067 10.7738 34.2618 10.6591C34.1169 10.5444 33.9388 10.487 33.7275 10.487C33.5182 10.487 33.341 10.5424 33.1961 10.6531C33.0532 10.7638 32.9435 10.9207 32.8671 11.124C32.7906 11.3273 32.7523 11.5668 32.7523 11.8425Z" fill="white"/>
<path d="M39.3398 9.52395V10.49H36.5472V9.52395H39.3398ZM37.1812 8.41296H38.4673V12.7362C38.4673 12.8549 38.4854 12.9475 38.5216 13.0139C38.5579 13.0783 38.6082 13.1236 38.6726 13.1498C38.739 13.1759 38.8155 13.189 38.902 13.189C38.9624 13.189 39.0228 13.184 39.0832 13.1739C39.1436 13.1618 39.1898 13.1528 39.222 13.1467L39.4243 14.1038C39.3599 14.1239 39.2693 14.147 39.1526 14.1732C39.0359 14.2014 38.894 14.2185 38.7269 14.2245C38.417 14.2366 38.1453 14.1953 37.9118 14.1007C37.6803 14.0062 37.5002 13.8592 37.3714 13.66C37.2426 13.4607 37.1792 13.2091 37.1812 12.9052V8.41296Z" fill="white"/>
<path d="M40.1776 14.1611V9.52395H41.4636V14.1611H40.1776ZM40.8236 8.92619C40.6324 8.92619 40.4684 8.86279 40.3315 8.73599C40.1967 8.60718 40.1293 8.45321 40.1293 8.27408C40.1293 8.09697 40.1967 7.94501 40.3315 7.81822C40.4684 7.68941 40.6324 7.625 40.8236 7.625C41.0148 7.625 41.1779 7.68941 41.3127 7.81822C41.4496 7.94501 41.518 8.09697 41.518 8.27408C41.518 8.45321 41.4496 8.60718 41.3127 8.73599C41.1779 8.86279 41.0148 8.92619 40.8236 8.92619Z" fill="white"/>
<path d="M42.4939 14.1611V9.52395H43.7196V10.3421H43.7739C43.8705 10.0704 44.0316 9.85604 44.257 9.69905C44.4824 9.54206 44.7521 9.46357 45.0661 9.46357C45.3841 9.46357 45.6548 9.54307 45.8782 9.70207C46.1016 9.85906 46.2505 10.0724 46.325 10.3421H46.3733C46.4679 10.0764 46.639 9.86409 46.8865 9.70509C47.1361 9.54408 47.4309 9.46357 47.7711 9.46357C48.2038 9.46357 48.555 9.60144 48.8247 9.87717C49.0964 10.1509 49.2323 10.5393 49.2323 11.0425V14.1611H47.9492V11.2961C47.9492 11.0385 47.8808 10.8453 47.7439 10.7165C47.6071 10.5876 47.436 10.5232 47.2307 10.5232C46.9972 10.5232 46.8151 10.5977 46.6842 10.7466C46.5534 10.8936 46.488 11.0878 46.488 11.3293V14.1611H45.2412V11.2689C45.2412 11.0415 45.1758 10.8604 45.0449 10.7255C44.9161 10.5907 44.7461 10.5232 44.5347 10.5232C44.3918 10.5232 44.263 10.5595 44.1483 10.6319C44.0356 10.7024 43.946 10.802 43.8796 10.9308C43.8132 11.0576 43.78 11.2065 43.78 11.3776V14.1611H42.4939Z" fill="white"/>
<path d="M51.5705 14.2487C51.2746 14.2487 51.011 14.1974 50.7795 14.0947C50.5481 13.9901 50.3649 13.8361 50.2301 13.6328C50.0972 13.4275 50.0308 13.1719 50.0308 12.866C50.0308 12.6084 50.0781 12.392 50.1727 12.2169C50.2673 12.0418 50.3961 11.9009 50.5591 11.7942C50.7222 11.6876 50.9073 11.6071 51.1146 11.5527C51.3239 11.4984 51.5433 11.4601 51.7728 11.438C52.0425 11.4098 52.2598 11.3837 52.4249 11.3595C52.5899 11.3333 52.7097 11.2951 52.7841 11.2448C52.8586 11.1945 52.8958 11.12 52.8958 11.0214V11.0033C52.8958 10.8121 52.8355 10.6641 52.7147 10.5595C52.5959 10.4548 52.4269 10.4025 52.2075 10.4025C51.976 10.4025 51.7919 10.4538 51.655 10.5564C51.5182 10.6571 51.4276 10.7839 51.3833 10.9368L50.1938 10.8402C50.2542 10.5585 50.373 10.3149 50.5501 10.1096C50.7272 9.90233 50.9556 9.74333 51.2354 9.63263C51.5172 9.51992 51.8432 9.46357 52.2135 9.46357C52.4712 9.46357 52.7177 9.49376 52.9532 9.55414C53.1907 9.61452 53.401 9.70811 53.5842 9.83491C53.7693 9.9617 53.9152 10.1247 54.0219 10.324C54.1286 10.5212 54.1819 10.7577 54.1819 11.0334V14.1611H52.9623V13.5181H52.926C52.8516 13.663 52.7519 13.7908 52.6271 13.9015C52.5024 14.0102 52.3524 14.0957 52.1773 14.1581C52.0022 14.2185 51.7999 14.2487 51.5705 14.2487ZM51.9388 13.3611C52.128 13.3611 52.2951 13.3239 52.44 13.2494C52.5849 13.1729 52.6986 13.0703 52.7811 12.9415C52.8636 12.8126 52.9049 12.6667 52.9049 12.5037V12.0116C52.8646 12.0378 52.8093 12.0619 52.7388 12.0841C52.6704 12.1042 52.5929 12.1233 52.5064 12.1414C52.4198 12.1575 52.3333 12.1726 52.2467 12.1867C52.1602 12.1988 52.0817 12.2098 52.0113 12.2199C51.8603 12.2421 51.7285 12.2773 51.6158 12.3256C51.5031 12.3739 51.4155 12.4393 51.3531 12.5218C51.2907 12.6023 51.2595 12.703 51.2595 12.8237C51.2595 12.9988 51.3229 13.1327 51.4497 13.2252C51.5785 13.3158 51.7416 13.3611 51.9388 13.3611Z" fill="white"/>
<path d="M56.4658 7.97822V14.1611H55.1797V7.97822H56.4658Z" fill="white"/>
<path d="M24.8675 24.1648V17.9819H26.1747V23.087H28.8254V24.1648H24.8675Z" fill="white"/>
<path d="M31.7621 24.2554C31.2932 24.2554 30.8876 24.1558 30.5455 23.9565C30.2053 23.7552 29.9427 23.4755 29.7575 23.1172C29.5723 22.757 29.4797 22.3393 29.4797 21.8643C29.4797 21.3853 29.5723 20.9667 29.7575 20.6084C29.9427 20.2482 30.2053 19.9684 30.5455 19.7692C30.8876 19.5679 31.2932 19.4673 31.7621 19.4673C32.2311 19.4673 32.6356 19.5679 32.9757 19.7692C33.3179 19.9684 33.5816 20.2482 33.7667 20.6084C33.9519 20.9667 34.0445 21.3853 34.0445 21.8643C34.0445 22.3393 33.9519 22.757 33.7667 23.1172C33.5816 23.4755 33.3179 23.7552 32.9757 23.9565C32.6356 24.1558 32.2311 24.2554 31.7621 24.2554ZM31.7681 23.2591C31.9815 23.2591 32.1596 23.1987 32.3025 23.078C32.4454 22.9552 32.5531 22.7882 32.6255 22.5768C32.7 22.3655 32.7372 22.125 32.7372 21.8553C32.7372 21.5856 32.7 21.3451 32.6255 21.1338C32.5531 20.9224 32.4454 20.7554 32.3025 20.6326C32.1596 20.5098 31.9815 20.4484 31.7681 20.4484C31.5528 20.4484 31.3716 20.5098 31.2247 20.6326C31.0798 20.7554 30.9701 20.9224 30.8957 21.1338C30.8232 21.3451 30.787 21.5856 30.787 21.8553C30.787 22.125 30.8232 22.3655 30.8957 22.5768C30.9701 22.7882 31.0798 22.9552 31.2247 23.078C31.3716 23.1987 31.5528 23.2591 31.7681 23.2591Z" fill="white"/>
<path d="M36.9699 26.0004C36.5533 26.0004 36.196 25.943 35.8981 25.8283C35.6023 25.7156 35.3668 25.5616 35.1917 25.3664C35.0166 25.1712 34.9029 24.9518 34.8505 24.7082L36.04 24.5482C36.0763 24.6408 36.1336 24.7274 36.2121 24.8079C36.2906 24.8884 36.3943 24.9528 36.5231 25.0011C36.6539 25.0514 36.8129 25.0766 37.0001 25.0766C37.2798 25.0766 37.5103 25.0081 37.6914 24.8713C37.8746 24.7364 37.9661 24.51 37.9661 24.192V23.3437H37.9118C37.8554 23.4725 37.7709 23.5942 37.6582 23.709C37.5455 23.8237 37.4006 23.9173 37.2235 23.9897C37.0464 24.0622 36.835 24.0984 36.5895 24.0984C36.2413 24.0984 35.9243 24.0179 35.6385 23.8569C35.3547 23.6939 35.1283 23.4453 34.9592 23.1112C34.7922 22.7751 34.7086 22.3504 34.7086 21.8372C34.7086 21.3119 34.7942 20.8731 34.9653 20.5209C35.1363 20.1687 35.3638 19.905 35.6476 19.7299C35.9334 19.5548 36.2463 19.4673 36.5865 19.4673C36.8461 19.4673 37.0635 19.5115 37.2386 19.6001C37.4137 19.6866 37.5546 19.7953 37.6612 19.9262C37.7699 20.055 37.8534 20.1818 37.9118 20.3065H37.9601V19.5276H39.2371V24.2101C39.2371 24.6046 39.1405 24.9347 38.9473 25.2003C38.7541 25.466 38.4864 25.6653 38.1443 25.7981C37.8041 25.933 37.4127 26.0004 36.9699 26.0004ZM36.997 23.1323C37.2044 23.1323 37.3795 23.081 37.5224 22.9784C37.6673 22.8737 37.778 22.7248 37.8544 22.5315C37.9329 22.3363 37.9722 22.1029 37.9722 21.8311C37.9722 21.5594 37.9339 21.3239 37.8575 21.1247C37.781 20.9234 37.6703 20.7674 37.5254 20.6568C37.3805 20.5461 37.2044 20.4907 36.997 20.4907C36.7857 20.4907 36.6076 20.5481 36.4627 20.6628C36.3178 20.7755 36.2081 20.9325 36.1336 21.1338C36.0591 21.335 36.0219 21.5675 36.0219 21.8311C36.0219 22.0988 36.0591 22.3303 36.1336 22.5255C36.2101 22.7187 36.3198 22.8687 36.4627 22.9753C36.6076 23.08 36.7857 23.1323 36.997 23.1323Z" fill="white"/>
<path d="M40.2606 24.1648V19.5276H41.5467V24.1648H40.2606ZM40.9066 18.9299C40.7154 18.9299 40.5514 18.8665 40.4145 18.7397C40.2797 18.6109 40.2123 18.4569 40.2123 18.2778C40.2123 18.1007 40.2797 17.9487 40.4145 17.8219C40.5514 17.6931 40.7154 17.6287 40.9066 17.6287C41.0978 17.6287 41.2609 17.6931 41.3957 17.8219C41.5326 17.9487 41.601 18.1007 41.601 18.2778C41.601 18.4569 41.5326 18.6109 41.3957 18.7397C41.2609 18.8665 41.0978 18.9299 40.9066 18.9299Z" fill="white"/>
<path d="M46.4352 20.85L45.2578 20.9224C45.2376 20.8218 45.1944 20.7312 45.128 20.6507C45.0615 20.5682 44.974 20.5028 44.8653 20.4545C44.7586 20.4042 44.6308 20.379 44.4819 20.379C44.2826 20.379 44.1146 20.4213 43.9777 20.5058C43.8409 20.5883 43.7724 20.699 43.7724 20.8379C43.7724 20.9486 43.8167 21.0422 43.9053 21.1187C43.9938 21.1951 44.1458 21.2565 44.3611 21.3028L45.2004 21.4719C45.6512 21.5645 45.9874 21.7134 46.2088 21.9187C46.4302 22.124 46.5408 22.3937 46.5408 22.7278C46.5408 23.0317 46.4513 23.2984 46.2722 23.5278C46.095 23.7573 45.8515 23.9364 45.5416 24.0652C45.2336 24.192 44.8784 24.2554 44.4759 24.2554C43.862 24.2554 43.3729 24.1276 43.0086 23.872C42.6463 23.6144 42.434 23.2642 42.3716 22.8214L43.6366 22.755C43.6748 22.9421 43.7674 23.085 43.9143 23.1837C44.0612 23.2803 44.2494 23.3286 44.4789 23.3286C44.7043 23.3286 44.8854 23.2853 45.0223 23.1987C45.1612 23.1102 45.2316 22.9965 45.2336 22.8576C45.2316 22.7409 45.1823 22.6453 45.0857 22.5708C44.9891 22.4943 44.8401 22.4359 44.6389 22.3957L43.8358 22.2357C43.383 22.1451 43.0459 21.9881 42.8245 21.7647C42.6051 21.5413 42.4954 21.2565 42.4954 20.9103C42.4954 20.6125 42.5759 20.3559 42.7369 20.1405C42.8999 19.9251 43.1284 19.7591 43.4222 19.6424C43.7181 19.5256 44.0643 19.4673 44.4608 19.4673C45.0464 19.4673 45.5073 19.591 45.8435 19.8386C46.1816 20.0862 46.3788 20.4233 46.4352 20.85Z" fill="white"/>
<path d="M49.8172 19.5276V20.4937H47.0246V19.5276H49.8172ZM47.6586 18.4167H48.9447V22.7399C48.9447 22.8586 48.9628 22.9512 48.9991 23.0176C49.0353 23.082 49.0856 23.1273 49.15 23.1535C49.2164 23.1796 49.2929 23.1927 49.3795 23.1927C49.4398 23.1927 49.5002 23.1877 49.5606 23.1776C49.621 23.1655 49.6673 23.1565 49.6995 23.1504L49.9017 24.1075C49.8373 24.1276 49.7468 24.1507 49.63 24.1769C49.5133 24.2051 49.3714 24.2222 49.2044 24.2282C48.8944 24.2403 48.6227 24.199 48.3892 24.1044C48.1578 24.0098 47.9776 23.8629 47.8488 23.6637C47.72 23.4644 47.6566 23.2128 47.6586 22.9089V18.4167Z" fill="white"/>
<path d="M50.655 24.1648V19.5276H51.9411V24.1648H50.655ZM51.3011 18.9299C51.1098 18.9299 50.9458 18.8665 50.809 18.7397C50.6741 18.6109 50.6067 18.4569 50.6067 18.2778C50.6067 18.1007 50.6741 17.9487 50.809 17.8219C50.9458 17.6931 51.1098 17.6287 51.3011 17.6287C51.4923 17.6287 51.6553 17.6931 51.7901 17.8219C51.927 17.9487 51.9954 18.1007 51.9954 18.2778C51.9954 18.4569 51.927 18.6109 51.7901 18.7397C51.6553 18.8665 51.4923 18.9299 51.3011 18.9299Z" fill="white"/>
<path d="M55.0665 24.2554C54.5915 24.2554 54.1829 24.1548 53.8408 23.9535C53.5006 23.7502 53.239 23.4684 53.0558 23.1082C52.8747 22.7479 52.7841 22.3333 52.7841 21.8643C52.7841 21.3894 52.8757 20.9727 53.0589 20.6145C53.244 20.2542 53.5067 19.9735 53.8468 19.7722C54.187 19.5689 54.5915 19.4673 55.0605 19.4673C55.465 19.4673 55.8192 19.5407 56.1231 19.6877C56.4271 19.8346 56.6676 20.0409 56.8447 20.3065C57.0218 20.5722 57.1194 20.8842 57.1375 21.2424H55.9239C55.8897 21.011 55.7991 20.8248 55.6522 20.6839C55.5073 20.541 55.3171 20.4696 55.0816 20.4696C54.8823 20.4696 54.7082 20.5239 54.5593 20.6326C54.4124 20.7393 54.2977 20.8953 54.2151 21.1005C54.1326 21.3058 54.0914 21.5544 54.0914 21.8462C54.0914 22.1421 54.1316 22.3937 54.2121 22.601C54.2946 22.8083 54.4104 22.9663 54.5593 23.075C54.7082 23.1837 54.8823 23.238 55.0816 23.238C55.2285 23.238 55.3603 23.2078 55.4771 23.1474C55.5958 23.087 55.6934 22.9995 55.7699 22.8848C55.8484 22.768 55.8997 22.6282 55.9239 22.4651H57.1375C57.1174 22.8194 57.0208 23.1313 56.8477 23.401C56.6766 23.6687 56.4401 23.878 56.1382 24.029C55.8363 24.1799 55.4791 24.2554 55.0665 24.2554Z" fill="white"/>
<path d="M59.9527 24.1648V17.9819H62.3921C62.861 17.9819 63.2606 18.0715 63.5906 18.2506C63.9207 18.4277 64.1723 18.6743 64.3454 18.9903C64.5205 19.3042 64.608 19.6665 64.608 20.0771C64.608 20.4877 64.5195 20.85 64.3424 21.1639C64.1652 21.4779 63.9086 21.7225 63.5725 21.8976C63.2384 22.0727 62.8339 22.1602 62.3589 22.1602H60.8041V21.1126H62.1475C62.3991 21.1126 62.6064 21.0693 62.7695 20.9828C62.9345 20.8942 63.0573 20.7725 63.1378 20.6175C63.2203 20.4605 63.2616 20.2804 63.2616 20.0771C63.2616 19.8718 63.2203 19.6927 63.1378 19.5397C63.0573 19.3847 62.9345 19.265 62.7695 19.1805C62.6044 19.0939 62.3951 19.0506 62.1415 19.0506H61.26V24.1648H59.9527Z" fill="white"/>
<path d="M65.433 24.1648V19.5276H66.6798V20.3367H66.7281C66.8127 20.0489 66.9545 19.8316 67.1538 19.6846C67.3531 19.5357 67.5825 19.4612 67.8421 19.4612C67.9065 19.4612 67.976 19.4653 68.0504 19.4733C68.1249 19.4814 68.1903 19.4924 68.2467 19.5065V20.6477C68.1863 20.6296 68.1028 20.6135 67.9961 20.5994C67.8894 20.5853 67.7918 20.5783 67.7033 20.5783C67.5141 20.5783 67.345 20.6195 67.1961 20.702C67.0491 20.7825 66.9324 20.8953 66.8459 21.0402C66.7613 21.1851 66.7191 21.3521 66.7191 21.5413V24.1648H65.433Z" fill="white"/>
<path d="M68.9116 24.1648V19.5276H70.1977V24.1648H68.9116ZM69.5577 18.9299C69.3665 18.9299 69.2024 18.8665 69.0656 18.7397C68.9307 18.6109 68.8633 18.4569 68.8633 18.2778C68.8633 18.1007 68.9307 17.9487 69.0656 17.8219C69.2024 17.6931 69.3665 17.6287 69.5577 17.6287C69.7489 17.6287 69.9119 17.6931 70.0468 17.8219C70.1836 17.9487 70.252 18.1007 70.252 18.2778C70.252 18.4569 70.1836 18.6109 70.0468 18.7397C69.9119 18.8665 69.7489 18.9299 69.5577 18.9299Z" fill="white"/>
<path d="M73.3231 24.2554C72.8481 24.2554 72.4396 24.1548 72.0974 23.9535C71.7573 23.7502 71.4956 23.4684 71.3125 23.1082C71.1313 22.7479 71.0408 22.3333 71.0408 21.8643C71.0408 21.3894 71.1323 20.9727 71.3155 20.6145C71.5007 20.2542 71.7633 19.9735 72.1034 19.7722C72.4436 19.5689 72.8481 19.4673 73.3171 19.4673C73.7216 19.4673 74.0759 19.5407 74.3798 19.6877C74.6837 19.8346 74.9242 20.0409 75.1013 20.3065C75.2784 20.5722 75.376 20.8842 75.3941 21.2424H74.1805C74.1463 21.011 74.0557 20.8248 73.9088 20.6839C73.7639 20.541 73.5737 20.4696 73.3382 20.4696C73.139 20.4696 72.9649 20.5239 72.8159 20.6326C72.669 20.7393 72.5543 20.8953 72.4718 21.1005C72.3892 21.3058 72.348 21.5544 72.348 21.8462C72.348 22.1421 72.3882 22.3937 72.4687 22.601C72.5513 22.8083 72.667 22.9663 72.8159 23.075C72.9649 23.1837 73.139 23.238 73.3382 23.238C73.4851 23.238 73.617 23.2078 73.7337 23.1474C73.8525 23.087 73.9501 22.9995 74.0265 22.8848C74.105 22.768 74.1564 22.6282 74.1805 22.4651H75.3941C75.374 22.8194 75.2774 23.1313 75.1043 23.401C74.9333 23.6687 74.6968 23.878 74.3949 24.029C74.093 24.1799 73.7357 24.2554 73.3231 24.2554Z" fill="white"/>
<path d="M78.3309 24.2554C77.8539 24.2554 77.4433 24.1588 77.0991 23.9656C76.757 23.7703 76.4933 23.4946 76.3082 23.1384C76.123 22.7801 76.0304 22.3564 76.0304 21.8674C76.0304 21.3904 76.123 20.9717 76.3082 20.6115C76.4933 20.2512 76.754 19.9704 77.0901 19.7692C77.4282 19.5679 77.8247 19.4673 78.2796 19.4673C78.5855 19.4673 78.8703 19.5166 79.1339 19.6152C79.3996 19.7118 79.6311 19.8577 79.8283 20.053C80.0276 20.2482 80.1825 20.4937 80.2932 20.7896C80.4039 21.0834 80.4593 21.4276 80.4593 21.8221V22.1753H76.5436V21.3783H79.2487C79.2487 21.1931 79.2084 21.0291 79.1279 20.8862C79.0474 20.7433 78.9357 20.6316 78.7928 20.5511C78.6519 20.4686 78.4879 20.4273 78.3007 20.4273C78.1055 20.4273 77.9324 20.4726 77.7814 20.5632C77.6325 20.6517 77.5158 20.7715 77.4312 20.9224C77.3467 21.0714 77.3034 21.2374 77.3014 21.4206V22.1783C77.3014 22.4078 77.3437 22.606 77.4282 22.7731C77.5147 22.9401 77.6365 23.0689 77.7935 23.1595C77.9505 23.2501 78.1367 23.2954 78.352 23.2954C78.4949 23.2954 78.6257 23.2752 78.7445 23.235C78.8632 23.1947 78.9649 23.1343 79.0494 23.0538C79.1339 22.9733 79.1983 22.8747 79.2426 22.758L80.4321 22.8365C80.3717 23.1223 80.2479 23.3718 80.0608 23.5852C79.8756 23.7965 79.6361 23.9615 79.3422 24.0803C79.0504 24.197 78.7133 24.2554 78.3309 24.2554Z" fill="white"/>
<path fill-rule="evenodd" clip-rule="evenodd" d="M12.6455 25.2662H0.428181L0.428181 8.78076H3.83896L3.83896 21.8554H12.6455V25.2662Z" fill="#009EFF"/>
<circle cx="5.21804" cy="4.24538" r="3.37966" fill="#878787"/>
<path fill-rule="evenodd" clip-rule="evenodd" d="M5.21826 15.5089C5.65014 18.2734 8.0418 20.3886 10.9275 20.3886H14.8749V25.2661H18.2857L18.2857 10.5364V8.83105L16.5803 8.83105L10.9275 8.83105C8.07085 8.83105 5.69832 10.9038 5.23189 13.6274H8.77226C9.14548 12.8099 9.97014 12.2418 10.9275 12.2418H14.8749L14.8749 16.9778H10.9275C9.93796 16.9778 9.0902 16.3708 8.73617 15.5089H5.21826Z" fill="#FB2C18"/>
</svg>
