<svg width="14" height="14" viewBox="0 0 14 14" fill="none" xmlns="http://www.w3.org/2000/svg">
<path d="M10.5468 7.24504L6.9418 10.8559C6.46919 11.2759 5.85397 11.4995 5.22197 11.4808C4.58997 11.4622 3.98897 11.2029 3.54188 10.7558C3.0948 10.3087 2.83543 9.7077 2.81683 9.0757C2.79822 8.44371 3.02179 7.82848 3.4418 7.35588L8.10847 2.68921C8.38708 2.42455 8.75669 2.27698 9.14097 2.27698C9.52525 2.27698 9.89485 2.42455 10.1735 2.68921C10.4449 2.9643 10.5971 3.33523 10.5971 3.72171C10.5971 4.10819 10.4449 4.47911 10.1735 4.75421L6.14847 8.77338C6.10863 8.81627 6.06074 8.85091 6.00752 8.8753C5.9543 8.89968 5.8968 8.91335 5.8383 8.91552C5.72015 8.91989 5.6051 8.87716 5.51847 8.79671C5.47557 8.75687 5.44094 8.70898 5.41655 8.65576C5.39216 8.60254 5.37849 8.54504 5.37632 8.48654C5.37195 8.36839 5.41468 8.25335 5.49513 8.16671L8.48763 5.18004C8.59748 5.0702 8.65919 4.92122 8.65919 4.76588C8.65919 4.61053 8.59748 4.46155 8.48763 4.35171C8.37779 4.24187 8.22881 4.18016 8.07347 4.18016C7.91812 4.18016 7.76914 4.24187 7.6593 4.35171L4.6668 7.35004C4.51706 7.49862 4.39821 7.67537 4.31711 7.8701C4.23601 8.06483 4.19425 8.27368 4.19425 8.48463C4.19425 8.69557 4.23601 8.90443 4.31711 9.09915C4.39821 9.29388 4.51706 9.47063 4.6668 9.61921C4.97268 9.91058 5.37894 10.0731 5.80138 10.0731C6.22383 10.0731 6.63008 9.91058 6.93597 9.61921L10.9551 5.59421C11.4188 5.0966 11.6712 4.43843 11.6592 3.75838C11.6472 3.07833 11.3718 2.42948 10.8908 1.94853C10.4099 1.46759 9.76102 1.1921 9.08096 1.1801C8.40091 1.1681 7.74275 1.42053 7.24513 1.88421L2.57847 6.55088C1.94917 7.24786 1.61307 8.16079 1.6402 9.09944C1.66732 10.0381 2.05559 10.9301 2.72409 11.5896C3.39259 12.2491 4.28978 12.6252 5.22872 12.6395C6.16765 12.6539 7.07593 12.3054 7.7643 11.6667L11.3751 8.06171C11.4295 8.00732 11.4727 7.94275 11.5021 7.87169C11.5315 7.80062 11.5467 7.72446 11.5467 7.64754C11.5467 7.57062 11.5315 7.49446 11.5021 7.4234C11.4727 7.35233 11.4295 7.28776 11.3751 7.23338C11.3207 7.17899 11.2562 7.13584 11.1851 7.10641C11.114 7.07697 11.0379 7.06182 10.961 7.06182C10.884 7.06182 10.8079 7.07697 10.7368 7.10641C10.6658 7.13584 10.6012 7.17899 10.5468 7.23338V7.24504Z" fill="black"/>
</svg>
