<svg width="613" height="143" viewBox="0 0 613 143" fill="none" xmlns="http://www.w3.org/2000/svg">
<path d="M446.5 139L447.098 140.908L446.5 139ZM197.5 97L198.681 98.614L197.5 97ZM0.833333 103.5C0.833333 109.391 5.60896 114.167 11.5 114.167C17.391 114.167 22.1667 109.391 22.1667 103.5C22.1667 97.609 17.391 92.8333 11.5 92.8333C5.60896 92.8333 0.833333 97.609 0.833333 103.5ZM13.9962 106.74C15.0179 107.16 16.1864 106.672 16.6063 105.651C17.0262 104.629 16.5383 103.46 15.5167 103.04L13.9962 106.74ZM28.8908 108.009C27.8444 107.655 26.7093 108.216 26.3554 109.263C26.0014 110.309 26.5627 111.444 27.6091 111.798L28.8908 108.009ZM34.5265 114.036C35.5818 114.362 36.7017 113.77 37.0277 112.715C37.3538 111.66 36.7626 110.54 35.7072 110.214L34.5265 114.036ZM49.466 114.079C48.3953 113.808 47.3073 114.456 47.036 115.527C46.7647 116.598 47.4127 117.686 48.4834 117.957L49.466 114.079ZM55.5545 119.651C56.6319 119.894 57.7026 119.218 57.9459 118.141C58.1892 117.063 57.5129 115.993 56.4355 115.749L55.5545 119.651ZM70.4303 118.518C69.3413 118.333 68.3087 119.066 68.1241 120.155C67.9395 121.244 68.6726 122.277 69.7616 122.461L70.4303 118.518ZM76.9284 123.572C78.0222 123.726 79.0334 122.963 79.1869 121.87C79.3404 120.776 78.578 119.765 77.4842 119.611L76.9284 123.572ZM91.6703 121.169C90.5692 121.083 89.6063 121.905 89.5197 123.006C89.4331 124.108 90.2555 125.07 91.3567 125.157L91.6703 121.169ZM98.6063 125.609C99.7097 125.66 100.645 124.806 100.696 123.703C100.746 122.599 99.8929 121.664 98.7895 121.613L98.6063 125.609ZM113.043 121.773C111.939 121.8 111.066 122.717 111.093 123.822C111.12 124.926 112.037 125.799 113.141 125.772L113.043 121.773ZM120.41 125.456C121.512 125.386 122.35 124.437 122.28 123.334C122.211 122.232 121.261 121.394 120.159 121.463L120.41 125.456ZM134.302 120.002C133.209 120.161 132.452 121.176 132.611 122.269C132.771 123.362 133.786 124.119 134.879 123.96L134.302 120.002ZM142.06 122.752C143.145 122.544 143.856 121.497 143.649 120.412C143.441 119.327 142.394 118.615 141.309 118.823L142.06 122.752ZM155.112 115.51C154.052 115.819 153.443 116.929 153.752 117.99C154.061 119.05 155.171 119.659 156.231 119.35L155.112 115.51ZM163.182 117.135C164.226 116.773 164.779 115.634 164.417 114.59C164.055 113.546 162.916 112.994 161.872 113.356L163.182 117.135ZM175.01 108.017C174.01 108.486 173.581 109.678 174.05 110.677C174.52 111.677 175.711 112.107 176.711 111.637L175.01 108.017ZM183.237 108.353C184.21 107.829 184.575 106.617 184.051 105.644C183.528 104.671 182.315 104.307 181.342 104.83L183.237 108.353ZM193.412 97.4522C192.502 98.0795 192.274 99.325 192.901 100.234C193.529 101.143 194.774 101.372 195.683 100.745L193.412 97.4522ZM201.394 96.7095C202.311 96.0925 202.553 94.8497 201.936 93.9335C201.319 93.0173 200.076 92.7747 199.16 93.3916L201.394 96.7095ZM211.306 86.4092C210.315 86.896 209.905 88.0944 210.392 89.0859C210.879 90.0774 212.077 90.4866 213.069 89.9998L211.306 86.4092ZM219.241 87.1883C220.258 86.7585 220.735 85.5852 220.305 84.5677C219.875 83.5502 218.702 83.0738 217.684 83.5036L219.241 87.1883ZM230.762 78.7216C229.709 79.0533 229.123 80.1762 229.455 81.2298C229.787 82.2834 230.91 82.8687 231.963 82.537L230.762 78.7216ZM238.531 80.6169C239.597 80.328 240.227 79.2296 239.938 78.1634C239.65 77.0973 238.551 76.4672 237.485 76.7561L238.531 80.6169ZM251.012 73.6028C249.929 73.8175 249.224 74.8699 249.439 75.9534C249.654 77.0369 250.706 77.7412 251.79 77.5265L251.012 73.6028ZM258.461 76.3092C259.55 76.127 260.286 75.096 260.103 74.0066C259.921 72.9172 258.89 72.1818 257.801 72.3641L258.461 76.3092ZM271.536 70.4494C270.439 70.5735 269.65 71.5639 269.774 72.6614C269.898 73.759 270.888 74.5482 271.986 74.424L271.536 70.4494ZM278.801 73.7365C279.901 73.6386 280.713 72.6673 280.616 71.5671C280.518 70.4669 279.546 69.6544 278.446 69.7523L278.801 73.7365ZM292.259 68.8289C291.155 68.8793 290.302 69.8146 290.352 70.918C290.402 72.0214 291.338 72.8751 292.441 72.8248L292.259 68.8289ZM299.268 72.5816C300.372 72.5531 301.244 71.6349 301.215 70.5307C301.187 69.4265 300.269 68.5545 299.164 68.583L299.268 72.5816ZM313 68.4854C311.896 68.4731 310.99 69.3585 310.978 70.463C310.966 71.5675 311.851 72.4728 312.955 72.4851L313 68.4854ZM319.805 72.6214C320.909 72.653 321.829 71.7835 321.861 70.6793C321.892 69.5752 321.023 68.6546 319.919 68.6231L319.805 72.6214ZM333.729 69.249C332.627 69.1808 331.678 70.0193 331.61 71.1218C331.542 72.2242 332.38 73.1732 333.482 73.2414L333.729 69.249ZM340.317 73.719C341.418 73.8048 342.38 72.9817 342.466 71.8805C342.552 70.7792 341.729 69.8169 340.627 69.7311L340.317 73.719ZM354.393 71.0226C353.295 70.9022 352.308 71.6947 352.187 72.7927C352.067 73.8907 352.859 74.8784 353.957 74.9988L354.393 71.0226ZM360.75 75.7973C361.846 75.9348 362.846 75.1578 362.983 74.0619C363.121 72.9659 362.344 71.9659 361.248 71.8284L360.75 75.7973ZM374.936 73.7651C373.845 73.593 372.821 74.338 372.649 75.4291C372.477 76.5202 373.222 77.5442 374.313 77.7162L374.936 73.7651ZM381.081 78.8399C382.169 79.0297 383.205 78.3014 383.395 77.2133C383.585 76.1251 382.857 75.0892 381.768 74.8994L381.081 78.8399ZM395.345 77.5036C394.264 77.2768 393.204 77.9693 392.977 79.0504C392.751 80.1314 393.443 81.1916 394.524 81.4184L395.345 77.5036ZM401.218 82.8865C402.295 83.1331 403.368 82.4601 403.615 81.3834C403.861 80.3067 403.188 79.234 402.111 78.9874L401.218 82.8865ZM415.554 82.3477C414.488 82.0575 413.389 82.6863 413.099 83.7521C412.809 84.8178 413.438 85.917 414.503 86.2072L415.554 82.3477ZM421.009 88.0573C422.068 88.3718 423.181 87.7685 423.495 86.7096C423.81 85.6508 423.207 84.5375 422.148 84.2229L421.009 88.0573ZM435.401 88.5494C434.361 88.1759 433.216 88.7158 432.842 89.7553C432.469 90.7949 433.009 91.9403 434.048 92.3138L435.401 88.5494ZM440.331 94.6915C441.357 95.101 442.52 94.6012 442.93 93.5754C443.339 92.5495 442.839 91.3859 441.813 90.9765L440.331 94.6915ZM454.629 96.7871C453.65 96.2769 452.442 96.6575 451.932 97.6372C451.421 98.6169 451.802 99.8247 452.782 100.335L454.629 96.7871ZM458.628 103.656C459.565 104.241 460.798 103.956 461.383 103.019C461.968 102.082 461.683 100.848 460.746 100.263L458.628 103.656ZM471.776 109.454C471.084 108.594 469.825 108.458 468.964 109.15C468.104 109.843 467.968 111.102 468.66 111.962L471.776 109.454ZM471.389 117.136C471.638 118.213 472.711 118.884 473.788 118.636C474.864 118.388 475.535 117.314 475.287 116.237L471.389 117.136ZM469.448 130.148C470.292 129.435 470.399 128.173 469.686 127.329C468.974 126.485 467.712 126.378 466.868 127.091L469.448 130.148ZM461.511 130.707C460.547 131.245 460.201 132.463 460.739 133.428C461.278 134.393 462.496 134.738 463.46 134.2L461.511 130.707ZM450.635 139.746C451.679 139.386 452.234 138.247 451.873 137.203C451.513 136.159 450.375 135.605 449.331 135.965L450.635 139.746ZM442.627 137.993C441.552 138.247 440.887 139.325 441.141 140.4C441.396 141.474 442.473 142.14 443.548 141.885L442.627 137.993ZM429.1 142.96C430.2 143.065 431.177 142.259 431.282 141.16C431.388 140.06 430.582 139.083 429.482 138.978L429.1 142.96ZM423.038 137.75C421.978 137.442 420.868 138.052 420.559 139.112C420.251 140.173 420.861 141.283 421.921 141.591L423.038 137.75ZM408.953 134.859C409.815 135.55 411.074 135.41 411.764 134.548C412.454 133.686 412.315 132.427 411.453 131.737L408.953 134.859ZM406.746 127.159C406.031 126.318 404.769 126.215 403.927 126.93C403.085 127.645 402.982 128.907 403.698 129.749L406.746 127.159ZM396.429 117.134C396.805 118.172 397.952 118.709 398.99 118.333C400.029 117.957 400.566 116.81 400.19 115.771L396.429 117.134ZM398.455 109.385C398.252 108.3 397.207 107.584 396.121 107.787C395.035 107.99 394.32 109.035 394.523 110.121L398.455 109.385ZM394.022 95.6858C393.902 96.7838 394.695 97.771 395.794 97.8907C396.892 98.0104 397.879 97.2173 397.998 96.1192L394.022 95.6858ZM399.161 89.5311C399.423 88.4579 398.764 87.3761 397.691 87.1147C396.618 86.8533 395.536 87.5114 395.275 88.5846L399.161 89.5311ZM400.275 75.1515C399.778 76.1379 400.174 77.3405 401.161 77.8376C402.147 78.3347 403.35 77.9381 403.847 76.9517L400.275 75.1515ZM407.189 71.0714C407.781 70.1387 407.504 68.9029 406.571 68.3113C405.639 67.7196 404.403 67.9962 403.811 68.9289L407.189 71.0714ZM412.477 57.5928C411.737 58.4127 411.802 59.6774 412.621 60.4176C413.441 61.1578 414.706 61.0932 415.446 60.2734L412.477 57.5928ZM420.157 55.4232C420.954 54.6584 420.98 53.3923 420.215 52.5954C419.45 51.7984 418.184 51.7724 417.387 52.5373L420.157 55.4232ZM428.271 43.3599C427.385 44.0198 427.202 45.2728 427.862 46.1586C428.522 47.0443 429.775 47.2274 430.661 46.5674L428.271 43.3599ZM436.183 42.6779C437.102 42.0654 437.351 40.8237 436.738 39.9045C436.126 38.9854 434.884 38.7368 433.965 39.3493L436.183 42.6779ZM446.073 32.091C445.101 32.6158 444.738 33.8291 445.263 34.8011C445.788 35.773 447.001 36.1355 447.973 35.6107L446.073 32.091ZM454.073 32.4765C455.066 31.9913 455.477 30.7936 454.992 29.8013C454.506 28.809 453.309 28.3979 452.316 28.8831L454.073 32.4765ZM465.15 23.1793C464.126 23.5927 463.63 24.7582 464.044 25.7825C464.457 26.8068 465.623 27.302 466.647 26.8886L465.15 23.1793ZM473.11 24.3997C474.147 24.019 474.679 22.8698 474.298 21.8329C473.918 20.796 472.768 20.2642 471.732 20.6449L473.11 24.3997ZM484.999 16.2019C483.942 16.5238 483.346 17.6414 483.668 18.698C483.99 19.7546 485.108 20.3502 486.164 20.0283L484.999 16.2019ZM492.848 18.0858C493.913 17.7909 494.536 16.6889 494.241 15.6244C493.947 14.5599 492.845 13.9361 491.78 14.231L492.848 18.0858ZM505.413 10.7961C504.336 11.0419 503.662 12.1141 503.908 13.191C504.154 14.2678 505.226 14.9416 506.303 14.6958L505.413 10.7961ZM512.933 13.2543C514.015 13.0305 514.71 11.9722 514.486 10.8906C514.263 9.8089 513.204 9.11346 512.123 9.33726L512.933 13.2543ZM525.972 6.75208C524.882 6.9344 524.147 7.96534 524.329 9.05476C524.512 10.1442 525.543 10.8795 526.632 10.6972L525.972 6.75208ZM533.349 9.6325C534.442 9.46882 535.194 8.45058 535.031 7.35821C534.867 6.26583 533.849 5.51298 532.756 5.67666L533.349 9.6325ZM546.706 3.82014C545.609 3.94849 544.824 4.9419 544.952 6.03898C545.081 7.13607 546.074 7.92139 547.171 7.79305L546.706 3.82014ZM553.955 7.04999C555.054 6.93767 555.854 5.95583 555.741 4.85699C555.629 3.75815 554.647 2.95841 553.548 3.07072L553.955 7.04999ZM567.584 1.83585C566.482 1.91762 565.656 2.87689 565.737 3.97843C565.819 5.07997 566.778 5.90665 567.88 5.82487L567.584 1.83585ZM574.674 5.36376C575.776 5.29585 576.615 4.34706 576.547 3.24458C576.479 2.1421 575.531 1.30342 574.428 1.37133L574.674 5.36376ZM588.566 0.675056C587.462 0.716203 586.601 1.64437 586.642 2.74817C586.683 3.85197 587.611 4.71343 588.715 4.67228L588.566 0.675056ZM595.477 4.45747C596.581 4.42839 597.452 3.50969 597.423 2.40551C597.394 1.30132 596.475 0.429774 595.371 0.458855L595.477 4.45747ZM609.403 0.239954C608.299 0.245649 607.408 1.14568 607.414 2.25024C607.419 3.35479 608.32 4.2456 609.424 4.2399L609.403 0.239954ZM11.5 103.5C10.669 105.319 10.6691 105.319 10.6692 105.319C10.6692 105.319 10.6693 105.319 10.6693 105.319C10.6694 105.319 10.6696 105.319 10.6697 105.32C10.67 105.32 10.6704 105.32 10.6709 105.32C10.6718 105.32 10.6729 105.321 10.6744 105.322C10.6773 105.323 10.6812 105.325 10.6863 105.327C10.6965 105.332 10.7111 105.338 10.7301 105.347C10.768 105.364 10.8235 105.389 10.8961 105.421C11.0413 105.486 11.2552 105.581 11.5356 105.703C12.0963 105.946 12.9228 106.299 13.9962 106.74L15.5167 103.04C14.4691 102.61 13.6673 102.268 13.1301 102.034C12.8615 101.917 12.659 101.828 12.5251 101.768C12.4581 101.738 12.4082 101.716 12.3758 101.701C12.3595 101.694 12.3477 101.688 12.3402 101.685C12.3365 101.683 12.3338 101.682 12.3323 101.681C12.3315 101.681 12.331 101.681 12.3308 101.681C12.3307 101.681 12.3306 101.681 12.3307 101.681C12.3307 101.681 12.3307 101.681 12.3308 101.681C12.3308 101.681 12.3308 101.681 12.3309 101.681C12.3309 101.681 12.331 101.681 11.5 103.5ZM27.6091 111.798C29.7448 112.521 32.0559 113.272 34.5265 114.036L35.7072 110.214C33.272 109.461 30.9946 108.721 28.8908 108.009L27.6091 111.798ZM48.4834 117.957C50.7643 118.535 53.1237 119.102 55.5545 119.651L56.4355 115.749C54.04 115.208 51.7144 114.649 49.466 114.079L48.4834 117.957ZM69.7616 122.461C72.1072 122.859 74.4977 123.231 76.9284 123.572L77.4842 119.611C75.0925 119.275 72.7396 118.909 70.4303 118.518L69.7616 122.461ZM91.3567 125.157C93.7476 125.345 96.1654 125.497 98.6063 125.609L98.7895 121.613C96.3936 121.503 94.0193 121.354 91.6703 121.169L91.3567 125.157ZM113.141 125.772C115.551 125.713 117.975 125.608 120.41 125.456L120.159 121.463C117.777 121.613 115.403 121.715 113.043 121.773L113.141 125.772ZM134.879 123.96C137.27 123.611 139.665 123.21 142.06 122.752L141.309 118.823C138.973 119.269 136.636 119.661 134.302 120.002L134.879 123.96ZM156.231 119.35C158.555 118.673 160.873 117.936 163.182 117.135L161.872 113.356C159.627 114.134 157.373 114.851 155.112 115.51L156.231 119.35ZM176.711 111.637C178.901 110.609 181.077 109.515 183.237 108.353L181.342 104.83C179.247 105.957 177.135 107.019 175.01 108.017L176.711 111.637ZM195.683 100.745C196.688 100.052 197.687 99.3415 198.681 98.614L196.319 95.386C195.355 96.0916 194.386 96.7802 193.412 97.4522L195.683 100.745ZM198.681 98.614C199.567 97.9659 200.471 97.3311 201.394 96.7095L199.16 93.3916C198.195 94.0417 197.248 94.7064 196.319 95.386L198.681 98.614ZM213.069 89.9998C215.07 89.0176 217.128 88.0808 219.241 87.1883L217.684 83.5036C215.505 84.4241 213.378 85.3921 211.306 86.4092L213.069 89.9998ZM231.963 82.537C234.113 81.8602 236.304 81.2204 238.531 80.6169L237.485 76.7561C235.208 77.3731 232.966 78.0279 230.762 78.7216L231.963 82.537ZM251.79 77.5265C253.988 77.0909 256.212 76.6854 258.461 76.3092L257.801 72.3641C255.514 72.7466 253.251 73.1592 251.012 73.6028L251.79 77.5265ZM271.986 74.424C274.241 74.1691 276.513 73.9401 278.801 73.7365L278.446 69.7523C276.128 69.9586 273.824 70.1907 271.536 70.4494L271.986 74.424ZM292.441 72.8248C294.708 72.7214 296.984 72.6405 299.268 72.5816L299.164 68.583C296.855 68.6425 294.552 68.7243 292.259 68.8289L292.441 72.8248ZM312.955 72.4851C315.236 72.5106 317.52 72.5562 319.805 72.6214L319.919 68.6231C317.611 68.5572 315.304 68.5111 313 68.4854L312.955 72.4851ZM333.482 73.2414C335.765 73.3824 338.043 73.5419 340.317 73.719L340.627 69.7311C338.333 69.5523 336.033 69.3914 333.729 69.249L333.482 73.2414ZM353.957 74.9988C356.232 75.2483 358.497 75.5147 360.75 75.7973L361.248 71.8284C358.975 71.5432 356.689 71.2744 354.393 71.0226L353.957 74.9988ZM374.313 77.7162C376.588 78.0751 378.845 78.4499 381.081 78.8399L381.768 74.8994C379.511 74.5056 377.232 74.1272 374.936 73.7651L374.313 77.7162ZM394.524 81.4184C396.785 81.8928 399.018 82.3825 401.218 82.8865L402.111 78.9874C399.887 78.4779 397.63 77.983 395.345 77.5036L394.524 81.4184ZM414.503 86.2072C416.717 86.8099 418.887 87.427 421.009 88.0573L422.148 84.2229C419.996 83.5836 417.797 82.9581 415.554 82.3477L414.503 86.2072ZM434.048 92.3138C436.218 93.0932 438.313 93.8864 440.331 94.6915L441.813 90.9765C439.75 90.1531 437.611 89.3435 435.401 88.5494L434.048 92.3138ZM452.782 100.335C454.89 101.433 456.842 102.541 458.628 103.656L460.746 100.263C458.861 99.0863 456.817 97.9267 454.629 96.7871L452.782 100.335ZM468.66 111.962C470.129 113.787 471.016 115.517 471.389 117.136L475.287 116.237C474.743 113.878 473.513 111.611 471.776 109.454L468.66 111.962ZM466.868 127.091C465.443 128.293 463.67 129.503 461.511 130.707L463.46 134.2C465.793 132.898 467.789 131.548 469.448 130.148L466.868 127.091ZM449.331 135.965C448.232 136.344 447.089 136.719 445.902 137.092L447.098 140.908C448.32 140.526 449.498 140.138 450.635 139.746L449.331 135.965ZM445.902 137.092C444.799 137.437 443.707 137.737 442.627 137.993L443.548 141.885C444.723 141.607 445.906 141.282 447.098 140.908L445.902 137.092ZM429.482 138.978C427.248 138.764 425.096 138.349 423.038 137.75L421.921 141.591C424.221 142.26 426.62 142.722 429.1 142.96L429.482 138.978ZM411.453 131.737C409.748 130.372 408.174 128.84 406.746 127.159L403.698 129.749C405.288 131.621 407.045 133.332 408.953 134.859L411.453 131.737ZM400.19 115.771C399.452 113.735 398.869 111.601 398.455 109.385L394.523 110.121C394.977 112.547 395.616 114.89 396.429 117.134L400.19 115.771ZM397.998 96.1192C398.234 93.9604 398.618 91.7608 399.161 89.5311L395.275 88.5846C394.691 90.9804 394.276 93.3513 394.022 95.6858L397.998 96.1192ZM403.847 76.9517C404.832 74.9971 405.944 73.0347 407.189 71.0714L403.811 68.9289C402.497 71.0007 401.32 73.0771 400.275 75.1515L403.847 76.9517ZM415.446 60.2734C416.914 58.6472 418.483 57.0292 420.157 55.4232L417.387 52.5373C415.646 54.2077 414.011 55.8942 412.477 57.5928L415.446 60.2734ZM430.661 46.5674C432.421 45.2559 434.261 43.9585 436.183 42.6779L433.965 39.3493C431.986 40.6678 430.089 42.0055 428.271 43.3599L430.661 46.5674ZM447.973 35.6107C449.94 34.5488 451.973 33.5035 454.073 32.4765L452.316 28.8831C450.169 29.9331 448.088 31.003 446.073 32.091L447.973 35.6107ZM466.647 26.8886C468.746 26.0415 470.9 25.2115 473.11 24.3997L471.732 20.6449C469.482 21.4709 467.289 22.3161 465.15 23.1793L466.647 26.8886ZM486.164 20.0283C488.345 19.3639 490.573 18.7161 492.848 18.0858L491.78 14.231C489.473 14.8702 487.212 15.5275 484.999 16.2019L486.164 20.0283ZM506.303 14.6958C508.475 14.2002 510.685 13.7195 512.933 13.2543L512.123 9.33726C509.848 9.80787 507.612 10.2943 505.413 10.7961L506.303 14.6958ZM526.632 10.6972C528.838 10.3281 531.077 9.97304 533.349 9.6325L532.756 5.67666C530.462 6.02053 528.2 6.37915 525.972 6.75208L526.632 10.6972ZM547.171 7.79305C549.403 7.53198 551.664 7.28417 553.955 7.04999L553.548 3.07072C551.238 3.30686 548.958 3.55678 546.706 3.82014L547.171 7.79305ZM567.88 5.82487C570.118 5.65869 572.383 5.50489 574.674 5.36376L574.428 1.37133C572.12 1.51348 569.839 1.66841 567.584 1.83585L567.88 5.82487ZM588.715 4.67228C590.945 4.58913 593.199 4.51745 595.477 4.45747L595.371 0.458855C593.079 0.519214 590.811 0.591357 588.566 0.675056L588.715 4.67228ZM609.424 4.2399C610.61 4.23379 611.802 4.23071 613 4.23071V0.230713C611.795 0.230713 610.596 0.233803 609.403 0.239954L609.424 4.2399Z" fill="#D8D8D8"/>
</svg>
