<svg width="191" height="172" viewBox="0 0 191 172" fill="none" xmlns="http://www.w3.org/2000/svg">
<path d="M117 76.5L116.4 74.592L117 76.5ZM3.10964 67.979L5.01004 68.6023L3.10964 67.979ZM153.833 161C153.833 166.891 158.609 171.667 164.5 171.667C170.391 171.667 175.166 166.891 175.166 161C175.166 155.109 170.391 150.333 164.5 150.333C158.609 150.333 153.833 155.109 153.833 161ZM161.696 158.095C160.637 157.781 159.524 158.384 159.209 159.443C158.895 160.502 159.498 161.615 160.557 161.93L161.696 158.095ZM146.643 157.644C147.695 157.979 148.82 157.396 149.154 156.344C149.489 155.291 148.906 154.166 147.853 153.832L146.643 157.644ZM140.993 151.623C139.943 151.281 138.814 151.854 138.472 152.904C138.129 153.954 138.702 155.083 139.753 155.426L140.993 151.623ZM125.977 150.811C127.022 151.17 128.16 150.615 128.519 149.57C128.878 148.526 128.322 147.388 127.278 147.029L125.977 150.811ZM120.453 144.651C119.411 144.284 118.269 144.83 117.901 145.872C117.533 146.913 118.08 148.056 119.121 148.423L120.453 144.651ZM105.469 143.473C106.504 143.858 107.656 143.332 108.041 142.297C108.427 141.262 107.901 140.11 106.866 139.725L105.469 143.473ZM100.105 137.168C99.0739 136.773 97.9172 137.288 97.5215 138.319C97.1259 139.35 97.6411 140.507 98.6724 140.903L100.105 137.168ZM85.1565 135.555C86.179 135.972 87.3466 135.482 87.7643 134.46C88.182 133.437 87.6917 132.269 86.6692 131.852L85.1565 135.555ZM80.0086 129.084C78.9912 128.654 77.8178 129.129 77.3875 130.147C76.9573 131.164 77.4333 132.338 78.4506 132.768L80.0086 129.084ZM65.1355 126.919C66.1401 127.378 67.3267 126.936 67.786 125.931C68.2453 124.927 67.8033 123.74 66.7987 123.281L65.1355 126.919ZM60.2665 120.228C59.27 119.751 58.0759 120.173 57.5994 121.169C57.1229 122.166 57.5445 123.36 58.541 123.836L60.2665 120.228ZM45.5329 117.29C46.5082 117.809 47.7191 117.438 48.2376 116.463C48.7561 115.488 48.3858 114.277 47.4105 113.758L45.5329 117.29ZM41.1176 110.305C40.1567 109.761 38.9361 110.098 38.3913 111.059C37.8465 112.02 38.1837 113.24 39.1446 113.785L41.1176 110.305ZM26.6882 106.144C27.606 106.759 28.8482 106.513 29.4629 105.595C30.0775 104.677 29.8317 103.435 28.9139 102.82L26.6882 106.144ZM23.0846 98.6978C22.201 98.035 20.9474 98.214 20.2846 99.0977C19.6218 99.9813 19.8009 101.235 20.6845 101.898L23.0846 98.6978ZM9.53274 92.083C10.2855 92.8913 11.5511 92.9363 12.3594 92.1835C13.1677 91.4306 13.2127 90.1651 12.4599 89.3568L9.53274 92.083ZM8.15367 83.9845C7.54091 83.0654 6.29916 82.8172 5.38014 83.4299C4.46112 84.0427 4.21284 85.2844 4.8256 86.2034L8.15367 83.9845ZM0.377683 71.3475C0.276447 72.4474 1.08604 73.4211 2.18596 73.5224C3.28588 73.6236 4.25961 72.814 4.36085 71.7141L0.377683 71.3475ZM6.29875 65.4957C6.79947 64.5112 6.40724 63.3071 5.42268 62.8064C4.43812 62.3057 3.23407 62.6979 2.73335 63.6825L6.29875 65.4957ZM13.3698 52.3976C12.4368 52.9889 12.1599 54.2246 12.7512 55.1575C13.3425 56.0905 14.5782 56.3674 15.5111 55.7761L13.3698 52.3976ZM21.6822 52.6169C22.7033 52.1956 23.1895 51.0263 22.7681 50.0052C22.3468 48.9842 21.1775 48.498 20.1565 48.9193L21.6822 52.6169ZM34.6787 44.8969C33.59 45.0833 32.8584 46.117 33.0448 47.2057C33.2312 48.2944 34.2648 49.026 35.3536 48.8396L34.6787 44.8969ZM42.4435 47.9059C43.5431 47.801 44.3494 46.8246 44.2445 45.725C44.1396 44.6255 43.1632 43.8191 42.0636 43.924L42.4435 47.9059ZM56.9067 43.396C55.8024 43.3761 54.8909 44.2552 54.871 45.3596C54.851 46.464 55.7301 47.3754 56.8345 47.3954L56.9067 43.396ZM64.0555 47.6952C65.1578 47.766 66.1088 46.9299 66.1796 45.8276C66.2504 44.7253 65.4143 43.7743 64.312 43.7035L64.0555 47.6952ZM79.0197 45.2707C77.9271 45.109 76.9102 45.8637 76.7485 46.9564C76.5868 48.0491 77.3415 49.0659 78.4342 49.2276L79.0197 45.2707ZM85.5744 50.4316C86.6597 50.6373 87.7062 49.9242 87.9119 48.839C88.1176 47.7537 87.4045 46.7072 86.3193 46.5015L85.5744 50.4316ZM100.754 49.8893C99.6913 49.5872 98.5852 50.2036 98.283 51.266C97.9809 52.3285 98.5973 53.4347 99.6598 53.7368L100.754 49.8893ZM106.505 55.8878C107.549 56.2502 108.688 55.698 109.051 54.6546C109.413 53.6111 108.861 52.4715 107.818 52.1092L106.505 55.8878ZM121.54 58.2735C120.596 57.6995 119.365 57.9992 118.791 58.9429C118.217 59.8866 118.517 61.117 119.461 61.691L121.54 58.2735ZM124.575 65.8551C125.256 66.7248 126.513 66.8778 127.383 66.1968C128.253 65.5158 128.406 64.2588 127.725 63.3891L124.575 65.8551ZM121.284 77.0768C122.303 76.6508 122.784 75.4793 122.358 74.4602C121.932 73.4411 120.761 72.9602 119.741 73.3862L121.284 77.0768ZM113.506 75.2284C112.41 75.3643 111.632 76.3632 111.768 77.4593C111.904 78.5555 112.903 79.3339 113.999 79.198L113.506 75.2284ZM100.111 75.0424C100.958 75.7514 102.219 75.6396 102.928 74.7926C103.637 73.9457 103.525 72.6843 102.678 71.9753L100.111 75.0424ZM98.8338 67.4334C98.2612 66.4888 97.0313 66.1871 96.0867 66.7597C95.1421 67.3322 94.8405 68.5621 95.413 69.5067L98.8338 67.4334ZM91.4444 55.9504C91.498 57.0536 92.4358 57.9046 93.539 57.851C94.6423 57.7974 95.4933 56.8596 95.4397 55.7564L91.4444 55.9504ZM95.7871 49.547C95.9595 48.4559 95.2149 47.4317 94.1239 47.2593C93.0328 47.0868 92.0086 47.8315 91.8361 48.9225L95.7871 49.547ZM96.4807 35.8078C95.9387 36.7703 96.2795 37.9899 97.242 38.5318C98.2044 39.0738 99.424 38.733 99.966 37.7705L96.4807 35.8078ZM103.493 32.5059C104.174 31.6362 104.021 30.3792 103.151 29.6981C102.282 29.0171 101.024 29.17 100.343 30.0396L103.493 32.5059ZM110.141 20.4171C109.267 21.0921 109.105 22.3481 109.78 23.2224C110.455 24.0967 111.711 24.2584 112.585 23.5834L110.141 20.4171ZM117.894 19.9059C118.832 19.3222 119.119 18.0888 118.535 17.1511C117.951 16.2133 116.718 15.9263 115.78 16.51L117.894 19.9059ZM127.88 10.3317C126.861 10.7567 126.379 11.9277 126.804 12.9473C127.229 13.9668 128.4 14.4488 129.419 14.0238L127.88 10.3317ZM135.505 11.7226C136.551 11.3652 137.108 10.2282 136.751 9.18305C136.393 8.13792 135.256 7.58044 134.211 7.93788L135.505 11.7226ZM147.135 4.30985C146.057 4.55332 145.381 5.6241 145.625 6.70151C145.868 7.77891 146.939 8.45494 148.017 8.21147L147.135 4.30985ZM154.427 6.91576C155.514 6.72073 156.238 5.68127 156.043 4.59405C155.848 3.50683 154.808 2.78357 153.721 2.9786L154.427 6.91576ZM167.048 1.12619C165.949 1.23804 165.149 2.21954 165.261 3.31843C165.372 4.41733 166.354 5.21748 167.453 5.10562L167.048 1.12619ZM173.96 4.55076C175.062 4.47436 175.893 3.51914 175.817 2.41721C175.741 1.31529 174.785 0.483937 173.683 0.560339L173.96 4.55076ZM187.071 0.0219239C185.966 0.0361506 185.082 0.94304 185.097 2.04752C185.111 3.152 186.018 4.03582 187.122 4.02159L187.071 0.0219239ZM164.5 161C165.048 159.077 165.048 159.077 165.048 159.077C165.048 159.077 165.048 159.077 165.048 159.077C165.048 159.077 165.048 159.077 165.048 159.077C165.048 159.076 165.047 159.076 165.047 159.076C165.047 159.076 165.046 159.076 165.045 159.076C165.043 159.075 165.039 159.074 165.035 159.073C165.026 159.07 165.013 159.067 164.995 159.061C164.959 159.051 164.904 159.036 164.832 159.015C164.688 158.973 164.473 158.911 164.189 158.829C163.622 158.664 162.782 158.418 161.696 158.095L160.557 161.93C161.651 162.255 162.498 162.503 163.073 162.67C163.36 162.753 163.579 162.816 163.726 162.859C163.8 162.88 163.856 162.896 163.894 162.907C163.913 162.912 163.927 162.916 163.937 162.919C163.941 162.921 163.945 162.922 163.948 162.922C163.949 162.923 163.95 162.923 163.951 162.923C163.951 162.923 163.951 162.923 163.951 162.923C163.951 162.923 163.952 162.923 163.952 162.923C163.952 162.923 163.952 162.923 163.952 162.923C163.952 162.923 163.952 162.923 164.5 161ZM147.853 153.832C145.72 153.154 143.426 152.417 140.993 151.623L139.753 155.426C142.196 156.223 144.5 156.964 146.643 157.644L147.853 153.832ZM127.278 147.029C125.06 146.266 122.782 145.473 120.453 144.651L119.121 148.423C121.461 149.249 123.75 150.045 125.977 150.811L127.278 147.029ZM106.866 139.725C104.635 138.893 102.379 138.04 100.105 137.168L98.6724 140.903C100.958 141.78 103.226 142.637 105.469 143.473L106.866 139.725ZM86.6692 131.852C84.4489 130.945 82.2265 130.022 80.0086 129.084L78.4506 132.768C80.6843 133.712 82.9218 134.642 85.1565 135.555L86.6692 131.852ZM66.7987 123.281C64.6003 122.276 62.4206 121.258 60.2665 120.228L58.541 123.836C60.717 124.877 62.9175 125.904 65.1355 126.919L66.7987 123.281ZM47.4105 113.758C45.2645 112.617 43.1641 111.466 41.1176 110.305L39.1446 113.785C41.225 114.965 43.3573 116.133 45.5329 117.29L47.4105 113.758ZM28.9139 102.82C26.8707 101.452 24.9237 100.077 23.0846 98.6978L20.6845 101.898C22.5866 103.324 24.5923 104.74 26.6882 106.144L28.9139 102.82ZM12.4599 89.3568C10.777 87.5498 9.33566 85.7572 8.15367 83.9845L4.8256 86.2034C6.14748 88.186 7.72973 90.147 9.53274 92.083L12.4599 89.3568ZM4.36085 71.7141C4.4563 70.677 4.66962 69.6402 5.01004 68.6023L1.20924 67.3557C0.776237 68.6759 0.500988 70.0078 0.377683 71.3475L4.36085 71.7141ZM5.01004 68.6023C5.36632 67.516 5.7975 66.4813 6.29875 65.4957L2.73335 63.6825C2.13908 64.851 1.62925 66.0751 1.20924 67.3557L5.01004 68.6023ZM15.5111 55.7761C17.3811 54.5909 19.4462 53.5396 21.6822 52.6169L20.1565 48.9193C17.7347 49.9187 15.4597 51.0729 13.3698 52.3976L15.5111 55.7761ZM35.3536 48.8396C37.6475 48.4469 40.0166 48.1375 42.4435 47.9059L42.0636 43.924C39.5469 44.1641 37.0789 44.4861 34.6787 44.8969L35.3536 48.8396ZM56.8345 47.3954C59.2292 47.4386 61.641 47.5401 64.0555 47.6952L64.312 43.7035C61.8391 43.5446 59.3657 43.4404 56.9067 43.396L56.8345 47.3954ZM78.4342 49.2276C80.849 49.585 83.2343 49.9881 85.5744 50.4316L86.3193 46.5015C83.9264 46.048 81.4879 45.636 79.0197 45.2707L78.4342 49.2276ZM99.6598 53.7368C102.057 54.4186 104.347 55.1384 106.505 55.8878L107.818 52.1092C105.582 51.3328 103.219 50.5902 100.754 49.8893L99.6598 53.7368ZM119.461 61.691C121.865 63.1536 123.567 64.567 124.575 65.8551L127.725 63.3891C126.299 61.5681 124.146 59.8591 121.54 58.2735L119.461 61.691ZM119.741 73.3862C118.76 73.7963 117.649 74.1994 116.4 74.592L117.6 78.408C118.947 77.9845 120.174 77.5407 121.284 77.0768L119.741 73.3862ZM116.4 74.592C115.41 74.9032 114.444 75.112 113.506 75.2284L113.999 79.198C115.185 79.0508 116.387 78.789 117.6 78.408L116.4 74.592ZM102.678 71.9753C101.218 70.7524 99.9177 69.2217 98.8338 67.4334L95.413 69.5067C96.7062 71.6402 98.2865 73.5153 100.111 75.0424L102.678 71.9753ZM95.4397 55.7564C95.3428 53.7621 95.4498 51.6811 95.7871 49.547L91.8361 48.9225C91.4566 51.3238 91.3341 53.6791 91.4444 55.9504L95.4397 55.7564ZM99.966 37.7705C100.96 36.0061 102.13 34.2453 103.493 32.5059L100.343 30.0396C98.8591 31.935 97.5754 33.8638 96.4807 35.8078L99.966 37.7705ZM112.585 23.5834C114.219 22.3222 115.986 21.0934 117.894 19.9059L115.78 16.51C113.762 17.7661 111.884 19.0713 110.141 20.4171L112.585 23.5834ZM129.419 14.0238C131.351 13.2188 133.378 12.4502 135.505 11.7226L134.211 7.93788C132.004 8.69272 129.895 9.49205 127.88 10.3317L129.419 14.0238ZM148.017 8.21147C150.081 7.74497 152.217 7.31221 154.427 6.91576L153.721 2.9786C151.454 3.38527 149.259 3.82981 147.135 4.30985L148.017 8.21147ZM167.453 5.10562C169.566 4.89053 171.735 4.70505 173.96 4.55076L173.683 0.560339C171.416 0.717524 169.205 0.906628 167.048 1.12619L167.453 5.10562ZM187.122 4.02159C188.236 4.00725 189.362 4 190.5 4V0C189.345 2.38419e-07 188.202 0.00735486 187.071 0.0219239L187.122 4.02159Z" fill="#D8D8D8"/>
</svg>
