<svg width="59" height="73" viewBox="0 0 59 73" fill="none" xmlns="http://www.w3.org/2000/svg">
<path d="M29.5005 0.250244C21.8092 0.250244 14.4329 3.30559 8.99439 8.74415C3.55584 14.1827 0.500488 21.559 0.500488 29.2502C0.500488 48.8252 26.0567 70.9377 27.1442 71.8802C27.8008 72.4419 28.6365 72.7505 29.5005 72.7505C30.3645 72.7505 31.2001 72.4419 31.8567 71.8802C33.1255 70.9377 58.5005 48.8252 58.5005 29.2502C58.5005 21.559 55.4451 14.1827 50.0066 8.74415C44.568 3.30559 37.1918 0.250244 29.5005 0.250244ZM29.5005 64.2315C21.7792 56.9815 7.75049 41.3577 7.75049 29.2502C7.75049 23.4818 10.042 17.9496 14.1209 13.8707C18.1998 9.79175 23.732 7.50024 29.5005 7.50024C35.2689 7.50024 40.8011 9.79175 44.8801 13.8707C48.959 17.9496 51.2505 23.4818 51.2505 29.2502C51.2505 41.3577 37.2217 57.0177 29.5005 64.2315ZM29.5005 14.7502C26.6327 14.7502 23.8292 15.6007 21.4447 17.1939C19.0602 18.7872 17.2017 21.0518 16.1042 23.7013C15.0068 26.3509 14.7196 29.2663 15.2791 32.0791C15.8386 34.8918 17.2196 37.4754 19.2474 39.5033C21.2753 41.5312 23.859 42.9121 26.6717 43.4716C29.4844 44.0311 32.3999 43.744 35.0494 42.6465C37.6989 41.549 39.9635 39.6905 41.5568 37.306C43.1501 34.9215 44.0005 32.1181 44.0005 29.2502C44.0005 25.4046 42.4728 21.7165 39.7535 18.9972C37.0343 16.2779 33.3461 14.7502 29.5005 14.7502ZM29.5005 36.5002C28.0666 36.5002 26.6649 36.075 25.4726 35.2784C24.2803 34.4818 23.3511 33.3495 22.8024 32.0247C22.2536 30.6999 22.1101 29.2422 22.3898 27.8358C22.6695 26.4295 23.36 25.1376 24.374 24.1237C25.3879 23.1098 26.6797 22.4193 28.0861 22.1395C29.4924 21.8598 30.9502 22.0034 32.2749 22.5521C33.5997 23.1009 34.732 24.0301 35.5286 25.2224C36.3253 26.4146 36.7505 27.8163 36.7505 29.2502C36.7505 31.1731 35.9866 33.0171 34.627 34.3768C33.2674 35.7364 31.4233 36.5002 29.5005 36.5002Z" fill="#FB2C18"/>
</svg>
