<svg width="24" height="24" viewBox="0 0 24 24" fill="none" xmlns="http://www.w3.org/2000/svg">
<path d="M22.0008 5.07983C22.0016 4.47005 21.8214 3.87375 21.4831 3.36647C21.1447 2.85918 20.6634 2.46376 20.1 2.23029C19.5367 1.99683 18.9168 1.93583 18.3188 2.05502C17.7207 2.17421 17.1716 2.46824 16.7408 2.89983L13.9308 5.70983L7.44079 3.54983C7.268 3.49552 7.0837 3.48917 6.90758 3.53144C6.73145 3.57371 6.57012 3.66302 6.44079 3.78983L4.06079 6.14983C3.94802 6.26391 3.86435 6.40344 3.81684 6.55665C3.76932 6.70986 3.75937 6.87226 3.7878 7.03012C3.81624 7.18799 3.88223 7.3367 3.98022 7.46371C4.07821 7.59071 4.20531 7.69228 4.35079 7.75983L9.53079 10.1098L6.93079 12.7098L5.22079 11.8498C5.03617 11.7499 4.82477 11.7106 4.61658 11.7375C4.40838 11.7645 4.21393 11.8562 4.06079 11.9998L2.29079 13.8098C2.10454 13.9972 2 14.2506 2 14.5148C2 14.779 2.10454 15.0325 2.29079 15.2198L8.78079 21.7098C8.96815 21.8961 9.22161 22.0006 9.48579 22.0006C9.74998 22.0006 10.0034 21.8961 10.1908 21.7098L12.0008 19.9398C12.1509 19.7913 12.2501 19.5991 12.2842 19.3907C12.3184 19.1823 12.2856 18.9685 12.1908 18.7798L11.3308 17.0698L13.9308 14.4698L16.2808 19.6498C16.3484 19.7953 16.4499 19.9224 16.5769 20.0204C16.7039 20.1184 16.8526 20.1844 17.0105 20.2128C17.1684 20.2413 17.3308 20.2313 17.484 20.1838C17.6372 20.1363 17.7767 20.0526 17.8908 19.9398L20.2508 17.5798C20.3776 17.4505 20.4669 17.2892 20.5092 17.1131C20.5515 16.9369 20.5451 16.7526 20.4908 16.5798L18.3308 10.0898L21.1008 7.25983C21.388 6.9744 21.6155 6.63463 21.77 6.26035C21.9246 5.88606 22.003 5.48475 22.0008 5.07983ZM19.6808 5.84983L16.4408 9.08983C16.314 9.21916 16.2247 9.38049 16.1824 9.55662C16.1401 9.73274 16.1465 9.91704 16.2008 10.0898L18.3608 16.5698L17.4608 17.4698L15.1108 12.2998C15.0441 12.153 14.9429 12.0245 14.8158 11.9252C14.6886 11.826 14.5394 11.7589 14.3808 11.7298C14.2209 11.7006 14.0562 11.7109 13.9011 11.7597C13.7461 11.8085 13.6052 11.8943 13.4908 12.0098L9.37079 16.1698C9.22288 16.3176 9.125 16.508 9.09092 16.7143C9.05684 16.9206 9.08827 17.1323 9.18079 17.3198L10.0008 18.9998L9.44079 19.5598L4.41079 14.5198L5.00079 13.9998L6.71079 14.8598C6.89828 14.9524 7.11006 14.9838 7.31634 14.9497C7.52262 14.9156 7.71303 14.8177 7.86079 14.6698L12.0008 10.5098C12.1157 10.3958 12.2012 10.2556 12.25 10.1013C12.2988 9.94695 12.3093 9.78308 12.2808 9.62375C12.2523 9.46442 12.1855 9.31439 12.0862 9.18656C11.9869 9.05872 11.8581 8.9569 11.7108 8.88983L6.50079 6.53983L7.40079 5.63983L13.8808 7.79983C14.0536 7.85414 14.2379 7.8605 14.414 7.81823C14.5901 7.77596 14.7515 7.68665 14.8808 7.55983L18.1208 4.31983C18.2204 4.21794 18.3394 4.13697 18.4708 4.0817C18.6022 4.02642 18.7433 3.99795 18.8858 3.99795C19.0283 3.99795 19.1694 4.02642 19.3008 4.0817C19.4321 4.13697 19.5511 4.21794 19.6508 4.31983C19.7551 4.41648 19.8376 4.53426 19.8928 4.66531C19.948 4.79637 19.9746 4.93769 19.9708 5.07983C19.9762 5.22103 19.9534 5.36189 19.9036 5.49412C19.8538 5.62635 19.778 5.7473 19.6808 5.84983Z" fill="black"/>
</svg>
