<svg width="20" height="20" viewBox="0 0 20 20" fill="none" xmlns="http://www.w3.org/2000/svg">
<path d="M16.2935 3.00149C16.0929 3.01609 15.8959 3.06316 15.7104 3.14087H15.7079C15.5298 3.21149 14.6829 3.56774 13.3954 4.10774L8.78164 6.05087C5.47102 7.44462 2.21664 8.81712 2.21664 8.81712L2.25539 8.80212C2.25539 8.80212 2.03102 8.87587 1.79664 9.03649C1.65185 9.12863 1.52725 9.24919 1.43039 9.39087C1.31539 9.55962 1.22289 9.81774 1.25727 10.0846C1.31352 10.5359 1.60602 10.8065 1.81602 10.9559C2.02852 11.1071 2.23102 11.1777 2.23102 11.1777H2.23602L5.28789 12.2059C5.42477 12.6452 6.21789 15.2527 6.40852 15.8534C6.52102 16.2121 6.63039 16.4365 6.76727 16.6077C6.83352 16.6952 6.91102 16.7684 7.00414 16.8271C7.05256 16.8553 7.10418 16.8775 7.15789 16.8934L7.12664 16.8859C7.13602 16.8884 7.14352 16.8959 7.15039 16.8984C7.17539 16.9052 7.19227 16.9077 7.22414 16.9127C7.70727 17.059 8.09539 16.759 8.09539 16.759L8.11727 16.7415L9.91914 15.1009L12.9391 17.4177L13.0079 17.4471C13.6373 17.7234 14.2748 17.5696 14.6116 17.2984C14.951 17.0252 15.0829 16.6759 15.0829 16.6759L15.1048 16.6196L17.4385 4.66399C17.5048 4.36899 17.5216 4.09274 17.4485 3.82462C17.3731 3.55326 17.199 3.31987 16.9604 3.17024C16.76 3.04844 16.5277 2.98965 16.2935 3.00149ZM16.2304 4.28274C16.2279 4.32212 16.2354 4.31774 16.2179 4.39337V4.40024L13.906 16.2315C13.896 16.2484 13.8791 16.2852 13.8329 16.3221C13.7841 16.3609 13.7454 16.3852 13.5423 16.3046L9.84852 13.4727L7.61727 15.5065L8.08602 12.5127L14.121 6.88774C14.3698 6.65649 14.2866 6.60774 14.2866 6.60774C14.3041 6.32399 13.911 6.52462 13.911 6.52462L6.30102 11.239L6.29852 11.2265L2.65102 9.99837V9.99587L2.64164 9.99399C2.64804 9.99187 2.6543 9.98937 2.66039 9.98649L2.68039 9.97649L2.69977 9.96962C2.69977 9.96962 5.95664 8.59712 9.26727 7.20337C10.9248 6.50524 12.5948 5.80212 13.8791 5.25962C14.6409 4.939 15.4034 4.62025 16.1666 4.30337C16.2179 4.28337 16.1935 4.28274 16.2304 4.28274Z" fill="#F1F1F1"/>
</svg>
