<svg width="24" height="24" viewBox="0 0 24 24" fill="none" xmlns="http://www.w3.org/2000/svg">
<path d="M8.71016 14.29C8.56939 14.1515 8.39083 14.0576 8.1969 14.0203C8.00297 13.9829 7.80232 14.0037 7.62016 14.08C7.49606 14.1249 7.38336 14.1966 7.29005 14.2899C7.19673 14.3832 7.12507 14.4959 7.08016 14.62C7.01538 14.7721 6.9893 14.9378 7.00427 15.1025C7.01923 15.2671 7.07477 15.4254 7.16592 15.5633C7.25706 15.7012 7.38097 15.8144 7.52656 15.8927C7.67214 15.9709 7.83486 16.0119 8.00016 16.0119C8.16546 16.0119 8.32818 15.9709 8.47376 15.8927C8.61935 15.8144 8.74326 15.7012 8.8344 15.5633C8.92555 15.4254 8.98109 15.2671 8.99605 15.1025C9.01102 14.9378 8.98494 14.7721 8.92016 14.62C8.86957 14.4988 8.79854 14.3872 8.71016 14.29ZM16.7102 14.29C16.5168 14.1116 16.2633 14.0125 16.0002 14.0125C15.737 14.0125 15.4835 14.1116 15.2902 14.29C15.2018 14.3872 15.1308 14.4988 15.0802 14.62C15.0022 14.8019 14.9806 15.0029 15.018 15.1972C15.0555 15.3915 15.1502 15.5701 15.2902 15.71C15.3873 15.7984 15.4989 15.8694 15.6202 15.92C15.7399 15.9728 15.8693 16.0001 16.0002 16.0001C16.131 16.0001 16.2604 15.9728 16.3802 15.92C16.5013 15.8692 16.6128 15.7982 16.7102 15.71C16.8501 15.5701 16.9449 15.3915 16.9823 15.1972C17.0197 15.0029 16.9981 14.8019 16.9202 14.62C16.8696 14.4988 16.7985 14.3872 16.7102 14.29ZM19.3102 18.895C20.018 18.3307 20.5583 17.5838 20.8727 16.7348C21.1871 15.8859 21.2637 14.9673 21.0942 14.078L19.5942 6.078C19.3791 4.93192 18.7703 3.89703 17.873 3.15236C16.9756 2.40768 15.8462 2.00006 14.6802 2H9.31916C8.15325 2.00029 7.0241 2.40802 6.12697 3.15267C5.22985 3.89733 4.62115 4.93208 4.40616 6.078L2.90616 14.078C2.73674 14.9673 2.81346 15.8861 3.12804 16.735C3.44262 17.5839 3.98311 18.3308 4.69116 18.895L3.29316 20.293C3.19765 20.3852 3.12147 20.4956 3.06906 20.6176C3.01665 20.7396 2.98906 20.8708 2.98791 21.0036C2.98676 21.1364 3.01206 21.2681 3.06234 21.391C3.11262 21.5138 3.18687 21.6255 3.28077 21.7194C3.37466 21.8133 3.48631 21.8875 3.60921 21.9378C3.7321 21.9881 3.86378 22.0134 3.99656 22.0123C4.12934 22.0111 4.26056 21.9835 4.38257 21.9311C4.50457 21.8787 4.61491 21.8025 4.70716 21.707L6.57716 19.837C6.98238 19.943 7.3993 19.9978 7.81816 20H16.1802C16.5996 19.9983 17.0173 19.9439 17.4232 19.838L19.2922 21.707C19.4808 21.8892 19.7334 21.99 19.9956 21.9877C20.2578 21.9854 20.5086 21.8802 20.694 21.6948C20.8794 21.5094 20.9846 21.2586 20.9868 20.9964C20.9891 20.7342 20.8883 20.4816 20.7062 20.293L19.3102 18.895ZM6.37016 6.447C6.49955 5.75922 6.86517 5.13825 7.40382 4.69144C7.94248 4.24463 8.62031 4.00006 9.32016 4H14.6822C15.3817 4.00052 16.059 4.24531 16.5973 4.69208C17.1355 5.13885 17.5008 5.75955 17.6302 6.447L17.9772 8.297C17.2306 9.14672 16.3114 9.82745 15.2809 10.2938C14.2504 10.7601 13.1323 11.0013 12.0012 11.0013C10.8701 11.0013 9.75195 10.7601 8.72145 10.2938C7.69095 9.82745 6.77174 9.14672 6.02516 8.297L6.37016 6.447ZM18.4872 16.916C18.2064 17.2554 17.8541 17.5285 17.4554 17.7159C17.0568 17.9033 16.6216 18.0003 16.1812 18H7.81916C7.37839 17.9999 6.94306 17.9027 6.54412 17.7153C6.14518 17.5279 5.79244 17.2548 5.51099 16.9156C5.22954 16.5764 5.0263 16.1794 4.91571 15.7527C4.80512 15.326 4.78991 14.8802 4.87116 14.447L5.58216 10.655C7.37773 12.1696 9.6511 13.0004 12.0002 13.0004C14.3492 13.0004 16.6226 12.1696 18.4182 10.655L19.1282 14.447C19.2101 14.8803 19.1953 15.3263 19.0846 15.7532C18.974 16.18 18.7703 16.5771 18.4882 16.916H18.4872Z" fill="black"/>
</svg>
