<svg width="20" height="20" viewBox="0 0 20 20" fill="none" xmlns="http://www.w3.org/2000/svg">
<path d="M13.8327 11.6668C13.666 11.5835 12.5827 11.0835 12.416 11.0002C12.2493 10.9168 12.0827 10.9168 11.916 11.0835C11.7493 11.2502 11.416 11.7502 11.2493 11.9168C11.166 12.0835 10.9993 12.0835 10.8327 12.0002C10.2493 11.7502 9.66602 11.4168 9.16602 11.0002C8.74935 10.5835 8.33268 10.0835 7.99935 9.5835C7.91602 9.41683 7.99935 9.25016 8.08268 9.16683C8.16602 9.0835 8.24935 8.91683 8.41602 8.8335C8.49935 8.75016 8.58268 8.5835 8.58268 8.50016C8.66602 8.41683 8.66602 8.25016 8.58268 8.16683C8.49935 8.0835 8.08268 7.0835 7.91602 6.66683C7.83268 6.0835 7.66602 6.0835 7.49935 6.0835H7.08268C6.91602 6.0835 6.66602 6.25016 6.58268 6.3335C6.08268 6.8335 5.83268 7.41683 5.83268 8.0835C5.91602 8.8335 6.16602 9.5835 6.66602 10.2502C7.58268 11.5835 8.74935 12.6668 10.166 13.3335C10.5827 13.5002 10.916 13.6668 11.3327 13.7502C11.7493 13.9168 12.166 13.9168 12.666 13.8335C13.2493 13.7502 13.7493 13.3335 14.0827 12.8335C14.2493 12.5002 14.2493 12.1668 14.166 11.8335L13.8327 11.6668ZM15.916 4.0835C12.666 0.833496 7.41602 0.833496 4.16602 4.0835C1.49935 6.75016 0.999349 10.8335 2.83268 14.0835L1.66602 18.3335L6.08268 17.1668C7.33268 17.8335 8.66602 18.1668 9.99935 18.1668C14.5827 18.1668 18.2493 14.5002 18.2493 9.91683C18.3327 7.75016 17.416 5.66683 15.916 4.0835ZM13.666 15.7502C12.5827 16.4168 11.3327 16.8335 9.99935 16.8335C8.74935 16.8335 7.58268 16.5002 6.49935 15.9168L6.24935 15.7502L3.66602 16.4168L4.33268 13.9168L4.16602 13.6668C2.16602 10.3335 3.16602 6.16683 6.41602 4.0835C9.66602 2.00016 13.8327 3.0835 15.8327 6.25016C17.8327 9.50016 16.916 13.7502 13.666 15.7502Z" fill="black"/>
</svg>
